<?xml version="1.0" encoding="UTF-8" standalone="no"?>
<svg
   xmlns:dc="http://purl.org/dc/elements/1.1/"
   xmlns:cc="http://creativecommons.org/ns#"
   xmlns:rdf="http://www.w3.org/1999/02/22-rdf-syntax-ns#"
   xmlns:svg="http://www.w3.org/2000/svg"
   xmlns="http://www.w3.org/2000/svg"
   xmlns:sodipodi="http://sodipodi.sourceforge.net/DTD/sodipodi-0.dtd"
   xmlns:inkscape="http://www.inkscape.org/namespaces/inkscape"
   width="64"
   height="64"
   version="1"
   id="svg1686"
   sodipodi:docname="vivaldi.svg"
   inkscape:version="1.0.1 (3bc2e813f5, 2020-09-07)">
  <metadata
     id="metadata1692">
    <rdf:RDF>
      <cc:Work
         rdf:about="">
        <dc:format>image/svg+xml</dc:format>
        <dc:type
           rdf:resource="http://purl.org/dc/dcmitype/StillImage" />
      </cc:Work>
    </rdf:RDF>
  </metadata>
  <defs
     id="defs1690" />
  <sodipodi:namedview
     pagecolor="#ffffff"
     bordercolor="#666666"
     borderopacity="1"
     objecttolerance="10"
     gridtolerance="10"
     guidetolerance="10"
     inkscape:pageopacity="0"
     inkscape:pageshadow="2"
     inkscape:window-width="1872"
     inkscape:window-height="1032"
     id="namedview1688"
     showgrid="false"
     inkscape:zoom="13.78125"
     inkscape:cx="32"
     inkscape:cy="32"
     inkscape:window-x="48"
     inkscape:window-y="48"
     inkscape:window-maximized="0"
     inkscape:current-layer="svg1686" />
  <rect
     style="fill:#c2352a"
     width="56"
     height="56"
     x="-60"
     y="-60"
     rx="3"
     ry="3"
     transform="matrix(0,-1,-1,0,0,0)"
     id="rect1676" />
  <path
     style="opacity:0.1;fill:#ffffff"
     d="M 7 4 C 5.338 4 4 5.338 4 7 L 4 8 C 4 6.338 5.338 5 7 5 L 57 5 C 58.662 5 60 6.338 60 8 L 60 7 C 60 5.338 58.662 4 57 4 L 7 4 z"
     id="path1678" />
  <path
     style="opacity:0.2"
     d="m 45.589214,17.000686 c -0.72186,5.5e-4 -1.45276,0.155277 -2.0378,0.456591 -0.85494,0.440311 -1.71546,1.373032 -2.0972,2.273154 -0.40568,0.956581 -0.46394,2.642947 -0.12216,3.539329 0.14456,0.379052 0.39402,1.030359 0.55426,1.447331 0.36188,0.941681 0.49214,3.012939 0.2627,4.176315 -0.25834,1.309934 -1.06094,2.823143 -2.0018,3.774324 -2.8234,2.853942 -7.092,2.903941 -9.8962,0.115858 -0.96764,-0.962121 -1.10488,-1.191836 -5.473,-9.167215 -1.482,-2.707946 -2.812,-4.9751 -3.088,-5.268094 -0.868,-0.939781 -2.075,-1.275774 -3.1802,-1.281374 -2.376,-0.03946 -4.0228,1.862682 -4.4136,3.904521 -0.28866,1.634007 -0.42144,1.352713 7.2538,15.34589 4.8446,8.832422 7.1472,12.90394 7.5248,13.304132 1.33742,1.417811 3.2428,1.769244 5.0258,0.926981 0.4688,-0.221475 0.9995,-0.619487 1.3385,-1.00386 0.66402,-0.752884 14.3956,-25.693481 14.6184,-26.551464 0.23352,-0.899202 0.17552,-2.176756 -0.13872,-3.060938 -0.3909,-1.099778 -1.46938,-2.228155 -2.533,-2.650346 -0.47742,-0.189477 -1.03342,-0.282375 -1.59486,-0.281915 z"
     id="path1680" />
  <path
     style="fill:#ffffff"
     d="m 45.589214,16.000686 c -0.72186,5.5e-4 -1.45276,0.155277 -2.0378,0.456591 -0.85494,0.440311 -1.71546,1.373032 -2.0972,2.273154 -0.40568,0.956581 -0.46394,2.642947 -0.12216,3.539329 0.14456,0.379052 0.39402,1.030359 0.55426,1.447331 0.36188,0.941681 0.49214,3.012939 0.2627,4.176315 -0.25834,1.309934 -1.06094,2.823143 -2.0018,3.774324 -2.8234,2.853942 -7.092,2.903941 -9.8962,0.115858 -0.96764,-0.962121 -1.10488,-1.191836 -5.473,-9.167215 -1.482,-2.707946 -2.812,-4.9751 -3.088,-5.268094 -0.868,-0.939781 -2.075,-1.275774 -3.1802,-1.281374 -2.376,-0.03946 -4.0228,1.862682 -4.4136,3.904521 -0.28866,1.634007 -0.42144,1.352713 7.2538,15.34589 4.8446,8.832422 7.1472,12.90394 7.5248,13.304132 1.33742,1.417811 3.2428,1.769244 5.0258,0.926981 0.4688,-0.221475 0.9995,-0.619487 1.3385,-1.00386 0.66402,-0.752884 14.3956,-25.693481 14.6184,-26.551464 0.23352,-0.899202 0.17552,-2.176756 -0.13872,-3.060938 -0.3909,-1.099778 -1.46938,-2.228155 -2.533,-2.650346 -0.47742,-0.189477 -1.03342,-0.282375 -1.59486,-0.281915 z"
     id="path1682" />
  <path
     style="opacity:0.2"
     d="m 4,57 0,1 c 0,1.662 1.338,3 3,3 l 50,0 c 1.662,0 3,-1.338 3,-3 l 0,-1 c 0,1.662 -1.338,3 -3,3 L 7,60 C 5.338,60 4,58.662 4,57 Z"
     id="path1684" />
  <path
     style="font-variation-settings:normal;opacity:1;vector-effect:none;fill:#ffffff;fill-opacity:1;stroke-width:0.00411351;stroke-linecap:butt;stroke-linejoin:miter;stroke-miterlimit:4;stroke-dasharray:none;stroke-dashoffset:0;stroke-opacity:1;stop-color:#000000;stop-opacity:1"
     d="M 5.675737,3.1607143 C 4.4366493,3.6023755 3.3054991,4.4045476 2.6513605,5.5659014 1.9598191,6.7020447 2.1581578,8.0992014 2.0721969,9.36754 c -0.08864,9.515102 -0.027063,19.031007 -0.044464,28.546434 0.019274,6.425166 -0.036494,12.851301 0.065522,19.275793 -0.017693,2.549247 2.3439676,4.886258 4.9155257,4.703542 13.3041874,0.106698 26.6091634,0.08083 39.9136944,0.07021 3.638647,-0.02727 7.280339,0.024 10.916953,-0.08653 2.342984,-0.369459 4.252075,-2.63701 4.079082,-5.028134 0.0889,-11.769831 0.04183,-23.540333 0.05195,-35.310442 C 61.94695,16.834532 62.01087,12.128741 61.89087,7.4261671 61.748578,5.2832668 59.931625,3.4465956 57.853557,3.086728 40.649735,3.0695473 23.444665,3.0842741 6.2403628,3.0793651 6.0521542,3.1064815 5.8639456,3.1335979 5.675737,3.1607143 Z M 45.700539,18.000709 c 0.97719,-0.06665 1.755316,0.747138 2.145833,1.558531 0.245132,0.885954 0.229282,1.840806 0.117914,2.745891 -0.766191,1.752517 -1.756351,3.400986 -2.63833,5.09772 -3.678788,6.760818 -7.359726,13.51628 -11.197032,20.194528 -0.279029,0.539252 -0.659144,1.05026 -1.26597,1.235104 -0.978925,0.443102 -2.260842,0.07076 -2.738946,-0.921769 -1.768702,-2.89267 -3.337046,-5.859664 -5.001396,-8.834407 -2.833416,-5.186373 -5.749086,-10.330301 -8.438215,-15.593796 -0.337708,-0.731796 -0.809612,-1.457876 -0.677453,-2.298412 -0.137657,-1.167906 0.478931,-2.398131 1.526361,-2.944728 0.607636,-0.279232 1.349437,-0.233165 1.973497,-0.03401 0.868036,0.304581 1.15628,1.272825 1.637961,1.962652 2.14188,3.688595 4.083226,7.491924 6.277033,11.150126 1.62958,2.763308 4.782167,4.622668 8.018353,4.45402 2.503953,-0.0315 4.867986,-1.312403 6.476772,-3.19465 1.853986,-2.081317 2.765816,-5.078591 2.005064,-7.806479 -0.209857,-1.09446 -0.91523,-2.080577 -0.812174,-3.228929 0.01967,-0.955315 -0.133603,-2.102733 0.684832,-2.792522 0.477715,-0.594194 1.162801,-0.799264 1.905896,-0.748866 z"
     id="path2259" />
</svg>
