<?xml version="1.0" encoding="UTF-8" standalone="no"?>
<svg
   xmlns:dc="http://purl.org/dc/elements/1.1/"
   xmlns:cc="http://creativecommons.org/ns#"
   xmlns:rdf="http://www.w3.org/1999/02/22-rdf-syntax-ns#"
   xmlns:svg="http://www.w3.org/2000/svg"
   xmlns="http://www.w3.org/2000/svg"
   xmlns:sodipodi="http://sodipodi.sourceforge.net/DTD/sodipodi-0.dtd"
   xmlns:inkscape="http://www.inkscape.org/namespaces/inkscape"
   fill="#000000"
   viewBox="0 0 24 24"
   width="144px"
   height="144px"
   version="1.1"
   id="svg835"
   sodipodi:docname="discord.svg"
   inkscape:version="1.0.1 (3bc2e813f5, 2020-09-07)">
  <metadata
     id="metadata841">
    <rdf:RDF>
      <cc:Work
         rdf:about="">
        <dc:format>image/svg+xml</dc:format>
        <dc:type
           rdf:resource="http://purl.org/dc/dcmitype/StillImage" />
      </cc:Work>
    </rdf:RDF>
  </metadata>
  <defs
     id="defs839" />
  <sodipodi:namedview
     pagecolor="#ffffff"
     bordercolor="#666666"
     borderopacity="1"
     objecttolerance="10"
     gridtolerance="10"
     guidetolerance="10"
     inkscape:pageopacity="0"
     inkscape:pageshadow="2"
     inkscape:window-width="1872"
     inkscape:window-height="1032"
     id="namedview837"
     showgrid="false"
     inkscape:zoom="5.1805556"
     inkscape:cx="72"
     inkscape:cy="72"
     inkscape:window-x="48"
     inkscape:window-y="48"
     inkscape:window-maximized="0"
     inkscape:current-layer="svg835" />
  <path
     d="M19.952,5.672c-1.904-1.531-4.916-1.79-5.044-1.801c-0.201-0.017-0.392,0.097-0.474,0.281c-0.006,0.012-0.072,0.163-0.145,0.398c1.259,0.212,2.806,0.64,4.206,1.509c0.224,0.139,0.293,0.434,0.154,0.659c-0.09,0.146-0.247,0.226-0.407,0.226c-0.086,0-0.173-0.023-0.252-0.072C15.584,5.38,12.578,5.305,12,5.305S8.415,5.38,6.011,6.872c-0.225,0.14-0.519,0.07-0.659-0.154c-0.14-0.225-0.07-0.519,0.154-0.659c1.4-0.868,2.946-1.297,4.206-1.509c-0.074-0.236-0.14-0.386-0.145-0.398C9.484,3.968,9.294,3.852,9.092,3.872c-0.127,0.01-3.139,0.269-5.069,1.822C3.015,6.625,1,12.073,1,16.783c0,0.083,0.022,0.165,0.063,0.237c1.391,2.443,5.185,3.083,6.05,3.111c0.005,0,0.01,0,0.015,0c0.153,0,0.297-0.073,0.387-0.197l0.875-1.202c-2.359-0.61-3.564-1.645-3.634-1.706c-0.198-0.175-0.217-0.477-0.042-0.675c0.175-0.198,0.476-0.217,0.674-0.043c0.029,0.026,2.248,1.909,6.612,1.909c4.372,0,6.591-1.891,6.613-1.91c0.198-0.172,0.5-0.154,0.674,0.045c0.174,0.198,0.155,0.499-0.042,0.673c-0.07,0.062-1.275,1.096-3.634,1.706l0.875,1.202c0.09,0.124,0.234,0.197,0.387,0.197c0.005,0,0.01,0,0.015,0c0.865-0.027,4.659-0.667,6.05-3.111C22.978,16.947,23,16.866,23,16.783C23,12.073,20.985,6.625,19.952,5.672z M8.891,14.87c-0.924,0-1.674-0.857-1.674-1.913s0.749-1.913,1.674-1.913s1.674,0.857,1.674,1.913S9.816,14.87,8.891,14.87z M15.109,14.87c-0.924,0-1.674-0.857-1.674-1.913s0.749-1.913,1.674-1.913c0.924,0,1.674,0.857,1.674,1.913S16.033,14.87,15.109,14.87z"
     id="path833" />
  <path
     style="font-variation-settings:normal;opacity:1;vector-effect:none;fill:#ffffff;fill-opacity:1;stroke-width:0.0109427;stroke-linecap:butt;stroke-linejoin:miter;stroke-miterlimit:4;stroke-dasharray:none;stroke-dashoffset:0;stroke-opacity:1;stop-color:#000000;stop-opacity:1"
     d="m 54.721222,21.371984 c -6.862449,0.490335 -13.582897,2.321965 -20.017762,4.697931 -4.347961,1.806297 -8.682529,3.957494 -12.195543,7.139829 -3.603482,4.106384 -5.63892,9.29364 -7.713038,14.277136 C 8.4060915,64.061162 4.5930395,81.698367 4.0841572,99.472395 c -0.2265174,3.213255 2.0111364,5.781585 3.9408931,8.080845 6.5642587,7.30252 15.9670977,11.3306 25.3347447,13.63573 3.464092,0.68926 7.01162,1.7689 10.569494,1.27128 2.201653,-0.51271 3.225766,-2.81905 4.602828,-4.3831 1.095555,-1.6843 2.664124,-3.21838 3.120166,-5.22013 0.149042,-2.03813 -2.093978,-2.73632 -3.680685,-3.11335 -6.396935,-1.97252 -12.73801,-4.7415 -17.969839,-8.86276 -1.146159,-0.63626 -0.108857,-2.44468 1.027355,-1.625673 8.315535,6.237153 18.49941,9.512393 28.681746,11.068453 7.036159,1.02805 14.204635,1.00024 21.279467,0.42125 11.361139,-1.26184 22.786803,-4.64694 32.062373,-11.51798 0.67396,-0.392454 1.63097,0.07706 1.42698,0.91727 -0.29636,0.97783 -1.52448,1.41486 -2.23605,2.07506 -5.56925,3.81626 -11.89123,6.26728 -18.351748,8.18265 -1.594115,0.60162 -2.013373,2.72246 -0.922168,3.9801 1.70636,2.54009 3.310734,5.24001 5.543566,7.35623 2.23558,1.57517 5.12306,0.63502 7.61065,0.37986 9.36369,-1.70485 18.74809,-4.9397 26.20457,-11.02325 2.88568,-2.48546 5.65566,-5.34544 7.2224,-8.86088 0.77863,-3.058272 0.10795,-6.255041 0.0379,-9.361592 -1.18599,-15.530691 -4.79007,-30.867496 -10.41406,-45.38443 -2.07238,-4.965498 -4.11534,-10.118716 -7.67626,-14.23337 -3.24085,-3.028815 -7.27338,-5.0863 -11.30584,-6.858316 -6.56671,-2.552249 -13.470074,-4.41471 -20.504815,-4.998294 -2.219562,-0.224741 -4.333661,1.216249 -5.019898,3.32448 -0.813145,1.531459 -0.575176,3.921905 1.33688,4.459283 4.175364,0.969772 8.400525,1.819982 12.430087,3.329521 4.072666,1.509766 8.167876,3.183401 11.735546,5.690838 0.47918,0.526974 0.0918,1.732517 -0.76835,1.491831 -1.35526,-0.328282 -2.46012,-1.386114 -3.76682,-1.896024 -10.580507,-5.455647 -22.59424,-7.821118 -34.445838,-7.793715 -11.701229,0.219876 -23.506784,2.780362 -33.87273,8.316278 -1.101104,0.381229 -2.297765,1.967856 -3.516192,1.121241 -0.343622,-0.637534 -0.154796,-1.434311 0.602462,-1.662994 7.231497,-4.489235 15.503415,-7.019166 23.821424,-8.575486 1.735719,-0.377767 2.1116,-2.494469 1.364778,-3.888489 -0.697375,-2.084629 -2.469582,-4.138099 -4.867962,-3.942778 z m 36.095007,46.836419 c 4.637203,0.06246 7.88439,4.698872 7.927405,9.042601 0.240402,4.250728 -2.314681,9.148975 -6.808062,9.894271 -2.484461,0.578776 -5.104126,-0.555303 -6.777143,-2.3812 -3.063241,-3.325267 -3.363626,-8.645665 -1.159309,-12.495266 1.490439,-2.086066 3.589135,-4.079352 6.330011,-4.05475 0.162218,-0.0079 0.324735,-0.01013 0.487098,-0.0057 z m -37.076367,0.02828 c 3.262395,0.07486 5.889409,2.80122 7.049348,5.670994 1.222371,3.607429 0.712101,7.93715 -1.90579,10.826617 -2.283201,2.6539 -6.558673,3.448962 -9.478049,1.364402 -5.733119,-3.804092 -5.542492,-13.7555 0.61151,-17.059358 1.122351,-0.652229 2.444062,-0.825912 3.722981,-0.802655 z"
     id="path843"
     transform="scale(0.16666667)" />
</svg>
