<?xml version="1.0" encoding="UTF-8" standalone="no"?>
<svg
   xmlns:dc="http://purl.org/dc/elements/1.1/"
   xmlns:cc="http://creativecommons.org/ns#"
   xmlns:rdf="http://www.w3.org/1999/02/22-rdf-syntax-ns#"
   xmlns:svg="http://www.w3.org/2000/svg"
   xmlns="http://www.w3.org/2000/svg"
   xmlns:sodipodi="http://sodipodi.sourceforge.net/DTD/sodipodi-0.dtd"
   xmlns:inkscape="http://www.inkscape.org/namespaces/inkscape"
   fill="#000000"
   viewBox="0 0 50 50"
   width="250px"
   height="250px"
   version="1.1"
   id="svg837"
   sodipodi:docname="firefox.svg"
   inkscape:version="1.0.1 (3bc2e813f5, 2020-09-07)">
  <metadata
     id="metadata843">
    <rdf:RDF>
      <cc:Work
         rdf:about="">
        <dc:format>image/svg+xml</dc:format>
        <dc:type
           rdf:resource="http://purl.org/dc/dcmitype/StillImage" />
      </cc:Work>
    </rdf:RDF>
  </metadata>
  <defs
     id="defs841" />
  <sodipodi:namedview
     pagecolor="#ffffff"
     bordercolor="#666666"
     borderopacity="1"
     objecttolerance="10"
     gridtolerance="10"
     guidetolerance="10"
     inkscape:pageopacity="0"
     inkscape:pageshadow="2"
     inkscape:window-width="1872"
     inkscape:window-height="1032"
     id="namedview839"
     showgrid="false"
     inkscape:zoom="2.984"
     inkscape:cx="125"
     inkscape:cy="125"
     inkscape:window-x="48"
     inkscape:window-y="48"
     inkscape:window-maximized="0"
     inkscape:current-layer="svg837" />
  <path
     d="M48.579,18.621c-0.103-0.433-0.492-0.748-0.937-0.748c-0.005,0-0.01,0-0.013,0c-0.38-2.756-1.289-6.538-3.471-8.691C43.973,9,43.729,8.906,43.483,8.906c-0.18,0-0.358,0.05-0.516,0.151c-0.121,0.077-0.219,0.177-0.292,0.291c-0.538-0.605-1.17-1.18-1.91-1.706C38.897,6.408,36.02,5,32.057,5c-0.651,0-1.335,0.018-2.054,0.056c0.367,0.002,0.702,0.024,1.049,0.039c-0.336-0.014-0.664-0.034-1.018-0.036c-0.011,0-0.02-0.003-0.031-0.003c2.908,0.025,5.061,2.851,5.31,3.635c-0.327-0.067-0.643-0.095-0.943-0.1c-0.249-0.004-0.486,0.007-0.707,0.032c-0.51,0.058-0.945,0.174-1.256,0.283c4.629,1.974,9.544,4.665,8.899,8.899c-0.456-0.771-1.389-1.336-1.856-1.336c0.008,0,0.019,0.006,0.025,0.006c-0.019,0-0.041-0.006-0.06-0.005c1.351,2.698,0.996,6.189,0.275,9.372c-0.21-1.568-1.435-2.979-1.435-2.979s1.292,7.463-2.539,11.248c0.602-1.488,0.52-3.669,0.52-3.669S32.078,37,27.003,37s-8.16-3.205-9-4c0.318,0.026,1.077,0.064,1.381,0.064c-0.004,0-0.009-0.001-0.013-0.001c0.291,0.001,0.574-0.011,0.851-0.031c3.974-0.296,6.264-2.625,6.503-2.797c0.357-0.256,0.6-0.351,0.868-0.351c0.173,0,0.355,0.039,0.585,0.101c0.061,0.017,0.133,0.01,0.205,0c0.294-0.039,0.621-0.28,0.621-0.649c0-0.675-1.38-2.335-3.405-2.335c-2.324,0-2.45,1.639-4.743,1.639c-2.328,0-5.147-3.502-5.229-3.791c0-0.368,0.066-1.587,1.371-1.782c1.711,0.271,2.91,0.6,3.255,0.615c0.316-1.769-0.63-3.33-0.779-3.629c0.673-0.856,2.91-2.269,3.125-2.42c0.399-0.279,0.826-0.978,0.826-1.376c0-0.344-0.367-0.428-0.367-0.428s-0.524-0.021-1.376-0.092c-1.585-0.133-1.712-0.397-2.507-1.101c-0.569-0.503-1.529-1.59-1.529-1.59s0.245-2.079,3.456-4.984c-2.63,0-6.177,3.088-6.177,3.088s-0.764-0.367-1.896-0.367c-2.049,0-3.425,0.704-3.425,0.704s-1.07-1.2-1.717-5.233C7.888,6.25,7.89,6.247,7.893,6.243c0-0.002-0.001-0.004-0.001-0.007C7.839,5.871,7.577,5.57,7.222,5.462c-0.091-0.027-0.184-0.04-0.276-0.04c-0.267,0-0.527,0.111-0.711,0.316c-2.515,2.777-2.651,7.735-2.64,9.069C1.433,17.96,1.002,19.284,1,20.476c0,0.838,0.098,1.232,0.375,1.507c0.123,0.122,0.271,0.204,0.428,0.247c-0.234,1.035-0.435,2.342-0.435,3.782c0,9.222,8.207,21.997,23.617,21.997c10.074,0,15.946-5.967,19.097-10.973C47.665,31.348,49,24.937,49,22.232C48.999,20.395,48.682,19.06,48.579,18.621z"
     id="path833" />
  <path
     fill="none"
     stroke="#000000"
     stroke-linecap="round"
     stroke-linejoin="round"
     stroke-miterlimit="10"
     stroke-width="2"
     d="M8.727,10.602C12.769,5.945,18.733,3,25.384,3c5.139,0,9.869,1.759,13.618,4.707"
     id="path835" />
  <path
     style="font-variation-settings:normal;opacity:1;vector-effect:none;fill:#ffffff;fill-opacity:1;stroke-width:0.0189978;stroke-linecap:butt;stroke-linejoin:miter;stroke-miterlimit:4;stroke-dasharray:none;stroke-dashoffset:0;stroke-opacity:1;stop-color:#000000;stop-opacity:1"
     d="M 126.29008,8.1868926 C 97.774259,8.1713238 69.575848,19.327178 48.483887,38.457782 46.878562,39.784584 45.179829,41.734841 43.731934,42.754718 42.303338,38.156404 42.090912,33.228795 40.372218,28.731359 38.591069,25.001085 32.991031,24.16028 30.232857,27.297933 23.117005,34.564049 19.966473,44.69061 17.966713,54.432795 16.723475,60.679125 16.346157,67.052299 16.18528,73.406475 11.094762,81.61065 4.8222517,89.737922 3.4189086,99.557855 3.121115,103.69678 2.7435861,109.04897 6.4949261,111.83473 c 0.9333843,0.72593 -0.2764943,2.35544 -0.1813055,3.47688 -2.0854156,12.28497 -1.4724844,24.9522 1.6166951,37.01578 9.2867223,37.44066 38.0445633,69.53325 74.4984943,82.35562 25.91438,9.06041 55.02618,9.90226 81.00599,0.62535 22.56042,-7.99252 41.43561,-24.31311 54.93432,-43.83846 12.34998,-17.95192 20.81531,-38.47019 25.67798,-59.66986 2.62677,-11.46008 3.79357,-23.44779 1.42917,-35.061179 -0.53856,-3.413037 -1.42525,-7.763167 -5.28444,-8.829253 -1.12548,-1.059474 -0.71311,-3.406032 -1.25801,-4.963321 -2.45928,-12.549849 -6.22369,-25.40999 -14.37615,-35.526062 -2.2534,-2.916472 -6.15049,-6.071513 -9.96068,-4.005084 -1.2866,1.515871 -2.12847,-0.350449 -3.18461,-1.20653 C 205.95661,36.883405 199.11353,33.370555 193.09625,28.762122 173.54245,15.391472 150.01728,7.9455521 126.29008,8.1868926 Z m -0.65322,13.7883814 c 10.60127,-0.231389 21.30241,1.214391 31.42083,4.361151 0.0134,3.0019 3.63484,3.062562 5.4444,4.600708 4.1897,2.777387 8.03698,6.2034 10.83579,10.408376 -2.96264,0.136462 -6.3976,-0.658513 -8.99066,1.12056 -1.82959,1.855171 -0.76967,5.095027 1.6972,5.759886 11.19483,5.282634 22.6188,10.72865 31.28535,19.834953 4.19794,4.463093 7.40486,10.208707 7.58799,16.450365 -1.98109,-1.699202 -4.65494,-4.293468 -7.4741,-3.025248 -2.49005,1.846555 -0.29246,5.056388 0.22319,7.349746 3.21909,10.79376 2.27556,22.302949 0.37636,33.128509 -1.0684,-2.2372 -2.14042,-5.73259 -5.27815,-5.33182 -2.23519,-0.38869 -3.24695,1.98125 -2.61477,3.83448 0.60169,7.41496 0.2766,15.05876 -0.79827,22.54578 -1.13622,6.96194 -3.23875,13.86931 -7.01432,19.87555 0.18144,-2.69418 0.93499,-5.47597 0.3384,-8.1293 -2.13326,-2.13189 -5.44846,-0.45702 -6.79602,1.77117 -8.12754,10.36852 -18.03897,20.02467 -30.50317,24.77406 -8.52025,2.8775 -17.9327,1.88198 -26.39606,-0.50255 -8.8889,-2.62621 -17.11905,-7.45406 -24.014074,-13.69885 13.861244,0.42722 27.761354,-4.43558 38.397604,-13.32632 1.87724,-1.35518 4.01128,-3.2239 6.49416,-2.2293 3.50952,1.06922 7.77657,-2.18482 6.7803,-5.92548 -2.03781,-6.26111 -8.23821,-10.33245 -14.36437,-11.93278 -5.31613,-1.05381 -11.02862,-0.15674 -15.54187,2.93427 -4.48977,3.14481 -10.05675,5.87096 -15.64398,4.22501 -7.945527,-2.35369 -13.763188,-8.78583 -19.273365,-14.61572 -1.102031,-1.17108 -2.463653,-2.59196 -1.595097,-4.32253 0.45825,-2.93365 3.364266,-5.31406 6.35944,-4.4194 4.946498,0.55392 9.75574,2.3705 14.740072,2.41391 2.8109,-0.73035 1.89204,-4.30547 1.89552,-6.44125 -0.12322,-4.5745 -1.6951,-8.90485 -3.626105,-12.99771 4.865455,-4.770182 11.208495,-8.189562 16.399315,-12.725416 1.82814,-2.442467 4.10088,-6.194498 1.86018,-9.044987 -2.79562,-2.218321 -6.73713,-1.3751 -10.02586,-1.933958 -3.28057,-0.269209 -6.79888,-0.903254 -9.045039,-3.551561 -2.966448,-2.733358 -6.002128,-5.434129 -8.586374,-8.541113 2.595684,-8.56122 8.914511,-15.247215 14.841523,-21.671572 1.83017,-1.354289 0.96243,-4.667238 -1.48841,-4.411547 -11.138803,1.643796 -20.600891,8.4189 -29.319125,15.111192 C 67.016826,51.088076 59.128559,52.052661 51.902463,54.060459 65.491468,39.76202 83.177879,29.315293 102.30343,24.834272 c 7.74652,-1.868128 15.4461,-3.028666 23.33343,-2.858998 z"
     id="path845"
     transform="scale(0.2)" />
</svg>
