<?xml version="1.0" encoding="UTF-8" standalone="no"?>
<svg
   xmlns:dc="http://purl.org/dc/elements/1.1/"
   xmlns:cc="http://creativecommons.org/ns#"
   xmlns:rdf="http://www.w3.org/1999/02/22-rdf-syntax-ns#"
   xmlns:svg="http://www.w3.org/2000/svg"
   xmlns="http://www.w3.org/2000/svg"
   xmlns:sodipodi="http://sodipodi.sourceforge.net/DTD/sodipodi-0.dtd"
   xmlns:inkscape="http://www.inkscape.org/namespaces/inkscape"
   viewBox="0 0 50 50"
   version="1.1"
   id="svg6"
   sodipodi:docname="kodi.svg"
   inkscape:version="1.0.1 (3bc2e813f5, 2020-09-07)">
  <defs
     id="defs10" />
  <sodipodi:namedview
     pagecolor="#ffffff"
     bordercolor="#666666"
     borderopacity="1"
     objecttolerance="10"
     gridtolerance="10"
     guidetolerance="10"
     inkscape:pageopacity="0"
     inkscape:pageshadow="2"
     inkscape:window-width="1872"
     inkscape:window-height="1032"
     id="namedview8"
     showgrid="false"
     inkscape:zoom="12.82"
     inkscape:cx="25.156006"
     inkscape:cy="25"
     inkscape:window-x="48"
     inkscape:window-y="48"
     inkscape:window-maximized="0"
     inkscape:current-layer="svg6" />
  <path
     d="M25.14 2c-.76 0-1.47.3-2 .84l-5.85 5.93a.969.969 0 0 0-.29.7v20.69c0 .4.25.77.62.92a1 1 0 0 0 .38.08c.26 0 .52-.11.71-.3l17.35-17.58a1 1 0 0 0 0-1.4l-8.93-9.04C26.6 2.3 25.89 2 25.14 2zM11.122 15.813a1 1 0 0 0-.8.257L2.9 22.96C2.32 23.5 2 24.22 2 25c0 .77.32 1.49.9 2.03l7.42 6.9c.19.17.43.27.68.27.14 0 .27-.03.4-.09.36-.16.6-.52.6-.91V16.8c0-.4-.24-.76-.6-.91a.982.982 0 0 0-.279-.078zm29.473.962c-.261 0-.523.096-.713.286l-8.592 8.68a.996.996 0 0 0 0 1.41l7.16 7.23c.19.19.451.299.711.299.27 0 .52-.11.71-.3l7.31-7.37a2.871 2.871 0 0 0 0-4.02l-5.88-5.93a.985.985 0 0 0-.706-.285zm-13.768 13.86a.985.985 0 0 0-.707.285l-8.83 8.91a.984.984 0 0 0 0 1.4l5.88 5.94c.54.53 1.25.83 2 .83.76 0 1.47-.3 2-.83l7.542-7.6a.996.996 0 0 0 0-1.41l-7.172-7.24a1.007 1.007 0 0 0-.713-.285z"
     id="path2" />
  <metadata
     id="metadata4">
    <rdf:RDF>
      <rdf:Description
         about="https://iconscout.com/legal#licenses"
         dc:title="kodi,filled"
         dc:description="kodi,filled"
         dc:publisher="Iconscout"
         dc:date="2017-12-09"
         dc:format="image/svg+xml"
         dc:language="en">
        <dc:creator>
          <rdf:Bag>
            <rdf:li>Icons8</rdf:li>
          </rdf:Bag>
        </dc:creator>
      </rdf:Description>
      <cc:Work
         rdf:about="">
        <dc:format>image/svg+xml</dc:format>
        <dc:type
           rdf:resource="http://purl.org/dc/dcmitype/StillImage" />
      </cc:Work>
    </rdf:RDF>
  </metadata>
  <path
     style="font-variation-settings:normal;opacity:1;vector-effect:none;fill:#ffffff;fill-opacity:1;stroke-width:0.00442194;stroke-linecap:butt;stroke-linejoin:miter;stroke-miterlimit:4;stroke-dasharray:none;stroke-dashoffset:0;stroke-opacity:1;stop-color:#000000;stop-opacity:1"
     d="M 25.156006,2.1060842 C 24.178072,1.9539627 23.435873,2.6960368 22.79498,3.316851 c -1.896537,1.8773396 -3.810179,3.7439842 -5.627728,5.6967594 -0.194104,0.5257051 -0.03349,1.1733596 -0.08814,1.7470076 0.0085,6.244752 -0.07497,12.490242 0.0014,18.734528 0.07707,0.502383 -0.126195,1.324762 0.524773,1.505153 0.497028,0.243309 0.992164,-0.03759 1.3033,-0.433329 C 24.659926,24.813172 30.37158,19.018549 36.015353,13.159133 36.385236,12.902346 36.405676,12.3966 36.074503,12.099472 34.253059,9.9954704 32.20703,8.0970001 30.278583,6.0921294 28.964363,4.8265502 27.77401,3.4062218 26.293602,2.3288197 25.956654,2.099519 25.547573,2.0931966 25.156006,2.1060842 Z"
     id="path847" />
  <path
     style="font-variation-settings:normal;opacity:1;vector-effect:none;fill:#ffffff;fill-opacity:1;stroke-width:0.00442194;stroke-linecap:butt;stroke-linejoin:miter;stroke-miterlimit:4;stroke-dasharray:none;stroke-dashoffset:0;stroke-opacity:1;stop-color:#000000;stop-opacity:1"
     d="m 10.976044,15.867084 c -0.763857,0.115487 -1.1840417,0.891791 -1.7727064,1.320018 -2.1673582,2.050859 -4.4348316,4.001357 -6.5096619,6.146892 -0.5689881,0.505411 -0.6500945,1.274383 -0.586525,1.986398 0.00134,1.084454 1.0408016,1.739667 1.6959926,2.464507 2.223499,2.077591 4.4275991,4.183046 6.7070147,6.196429 0.616942,0.448658 1.546431,-0.150044 1.392326,-0.897798 0.125049,-5.278813 0.113227,-10.561675 0.01265,-15.840879 0.02171,-0.501801 -0.0098,-1.130209 -0.581976,-1.316303 -0.113107,-0.04471 -0.235639,-0.06486 -0.357109,-0.05926 z"
     id="path849" />
  <path
     style="font-variation-settings:normal;opacity:1;vector-effect:none;fill:#ffffff;fill-opacity:1;stroke-width:0.00442194;stroke-linecap:butt;stroke-linejoin:miter;stroke-miterlimit:4;stroke-dasharray:none;stroke-dashoffset:0;stroke-opacity:1;stop-color:#000000;stop-opacity:1"
     d="m 40.54852,16.820489 c -0.803005,0.159882 -1.223275,0.992918 -1.822513,1.476677 -2.438178,2.492456 -4.974096,4.894108 -7.307813,7.485912 -0.275803,0.292021 -0.585325,0.746343 -0.219231,1.102556 2.287671,2.510148 4.719021,4.889112 7.173941,7.235212 0.294035,0.331787 0.710254,0.6675 1.168736,0.405742 0.905832,-0.706521 1.654096,-1.617327 2.496117,-2.405061 1.792894,-1.849089 3.699638,-3.594777 5.382351,-5.546687 0.611766,-0.667714 0.534375,-1.650157 0.393367,-2.474618 -0.517879,-1.121581 -1.557023,-1.889746 -2.368775,-2.791631 -1.503151,-1.486147 -2.961993,-3.02438 -4.544251,-4.425943 -0.110787,-0.04627 -0.231713,-0.07062 -0.351929,-0.06216 z"
     id="path851" />
  <path
     style="font-variation-settings:normal;opacity:1;vector-effect:none;fill:#ffffff;fill-opacity:1;stroke-width:0.00442194;stroke-linecap:butt;stroke-linejoin:miter;stroke-miterlimit:4;stroke-dasharray:none;stroke-dashoffset:0;stroke-opacity:1;stop-color:#000000;stop-opacity:1"
     d="m 21.789075,35.369083 c -1.564733,1.619293 -3.225239,3.156002 -4.68491,4.871234 -0.22994,0.688276 0.537188,1.161138 0.901373,1.636407 1.875794,1.897221 3.720651,3.835758 5.694897,5.628809 0.734125,0.498334 1.739705,0.542158 2.55051,0.226283 1.368978,-0.915924 2.423839,-2.220119 3.613565,-3.346648 1.688146,-1.725374 3.426742,-3.408006 5.029546,-5.212671 0.289173,-0.575685 -0.400818,-1.027797 -0.69721,-1.433328 -2.283946,-2.388854 -4.651761,-4.696104 -6.973757,-7.047836 -0.449682,-0.02033 -0.915603,-0.07952 -1.165023,0.384302 -1.422997,1.431149 -2.845994,2.862299 -4.268991,4.293448 z"
     id="path853" />
</svg>
