<?xml version="1.0" encoding="UTF-8" standalone="no"?>
<svg
   xmlns:dc="http://purl.org/dc/elements/1.1/"
   xmlns:cc="http://creativecommons.org/ns#"
   xmlns:rdf="http://www.w3.org/1999/02/22-rdf-syntax-ns#"
   xmlns:svg="http://www.w3.org/2000/svg"
   xmlns="http://www.w3.org/2000/svg"
   xmlns:sodipodi="http://sodipodi.sourceforge.net/DTD/sodipodi-0.dtd"
   xmlns:inkscape="http://www.inkscape.org/namespaces/inkscape"
   version="1.1"
   id="Capa_1"
   x="0px"
   y="0px"
   viewBox="0 0 230.17 230.17"
   style="enable-background:new 0 0 230.17 230.17;"
   xml:space="preserve"
   sodipodi:docname="mail.svg"
   inkscape:version="1.0.1 (3bc2e813f5, 2020-09-07)"><metadata
   id="metadata1025"><rdf:RDF><cc:Work
       rdf:about=""><dc:format>image/svg+xml</dc:format><dc:type
         rdf:resource="http://purl.org/dc/dcmitype/StillImage" /></cc:Work></rdf:RDF></metadata><defs
   id="defs1023" /><sodipodi:namedview
   pagecolor="#ffffff"
   bordercolor="#666666"
   borderopacity="1"
   objecttolerance="10"
   gridtolerance="10"
   guidetolerance="10"
   inkscape:pageopacity="0"
   inkscape:pageshadow="2"
   inkscape:window-width="1872"
   inkscape:window-height="1032"
   id="namedview1021"
   showgrid="false"
   inkscape:zoom="3.6234088"
   inkscape:cx="115.085"
   inkscape:cy="115.085"
   inkscape:window-x="48"
   inkscape:window-y="48"
   inkscape:window-maximized="0"
   inkscape:current-layer="Capa_1" />
<g
   id="g988">
	<path
   d="M230,49.585c0-0.263,0.181-0.519,0.169-0.779l-70.24,67.68l70.156,65.518c0.041-0.468-0.085-0.94-0.085-1.418V49.585z"
   id="path980" />
	<path
   d="M149.207,126.901l-28.674,27.588c-1.451,1.396-3.325,2.096-5.2,2.096c-1.836,0-3.672-0.67-5.113-2.013l-28.596-26.647   L11.01,195.989c1.717,0.617,3.56,1.096,5.49,1.096h197.667c2.866,0,5.554-0.873,7.891-2.175L149.207,126.901z"
   id="path982" />
	<path
   d="M115.251,138.757L222.447,35.496c-2.427-1.443-5.252-2.411-8.28-2.411H16.5c-3.943,0-7.556,1.531-10.37,3.866   L115.251,138.757z"
   id="path984" />
	<path
   d="M0,52.1v128.484c0,1.475,0.339,2.897,0.707,4.256l69.738-67.156L0,52.1z"
   id="path986" />
</g>
<g
   id="g990">
</g>
<g
   id="g992">
</g>
<g
   id="g994">
</g>
<g
   id="g996">
</g>
<g
   id="g998">
</g>
<g
   id="g1000">
</g>
<g
   id="g1002">
</g>
<g
   id="g1004">
</g>
<g
   id="g1006">
</g>
<g
   id="g1008">
</g>
<g
   id="g1010">
</g>
<g
   id="g1012">
</g>
<g
   id="g1014">
</g>
<g
   id="g1016">
</g>
<g
   id="g1018">
</g>
<path
   style="font-variation-settings:normal;opacity:1;vector-effect:none;fill:#ffffff;fill-opacity:1;stroke-width:0.0156453;stroke-linecap:butt;stroke-linejoin:miter;stroke-miterlimit:4;stroke-dasharray:none;stroke-dashoffset:0;stroke-opacity:1;stop-color:#000000;stop-opacity:1"
   d="m 144.43355,31.30469 c -43.72933,0.02572 -87.458648,0.05963 -131.187973,0.08948 -2.623264,0.849467 -5.6377535,1.709774 -7.4650223,3.92198 -1.290331,1.978107 0.4575142,3.941773 1.897774,5.194279 18.0152743,17.420012 36.5052953,34.342026 54.7751183,51.493985 16.477081,15.269116 32.741724,30.772636 49.462593,45.775356 1.29144,1.28642 3.46296,2.96024 5.1278,1.25055 11.17461,-10.0354 21.82567,-20.64215 32.71425,-30.98559 24.17419,-23.33055 48.49773,-46.510242 72.39552,-70.124478 1.63963,-1.058858 1.70959,-3.570284 -0.0394,-4.548921 -4.2286,-2.764114 -9.51618,-1.672354 -14.2685,-1.989532 -21.13703,-0.124785 -42.27487,-0.0704 -63.41215,-0.07711 z"
   id="path1027" /><path
   style="font-variation-settings:normal;opacity:1;vector-effect:none;fill:#ffffff;fill-opacity:1;stroke-width:0.0156453;stroke-linecap:butt;stroke-linejoin:miter;stroke-miterlimit:4;stroke-dasharray:none;stroke-dashoffset:0;stroke-opacity:1;stop-color:#000000;stop-opacity:1"
   d="m -0.99073663,52.30367 c -1.63466747,1.665013 -0.56392027,4.255535 -0.87107197,6.342763 0.054965,41.343304 -0.1353259,82.689027 0.1794969,124.030737 -0.084766,2.06461 2.35385376,3.49118 4.0502692,2.20409 5.0841487,-3.68745 9.3543255,-8.37822 13.9855035,-12.60101 18.196422,-17.55116 36.558543,-34.93736 54.443779,-52.80647 1.414645,-1.13288 0.841903,-3.17624 -0.522351,-4.07831 C 51.0526,96.91979 31.426907,78.867408 11.87678,60.739997 8.5624148,57.88026 5.5595615,54.579706 1.8968456,52.16514 0.97063732,51.766459 -0.08406805,51.950259 -0.99073663,52.30367 Z"
   id="path1029" /><path
   style="font-variation-settings:normal;opacity:1;vector-effect:none;fill:#ffffff;fill-opacity:1;stroke-width:0.0156453;stroke-linecap:butt;stroke-linejoin:miter;stroke-miterlimit:4;stroke-dasharray:none;stroke-dashoffset:0;stroke-opacity:1;stop-color:#000000;stop-opacity:1"
   d="m 149.0304,125.71574 c -2.54925,0.87407 -4.2057,3.30103 -6.26148,4.94481 -8.35114,7.77949 -16.33279,15.98464 -24.93325,23.47931 -2.01378,0.74629 -4.59093,0.81046 -6.11396,-0.95976 -9.7734,-8.37239 -18.729056,-17.67036 -28.617882,-25.90494 -2.084943,-1.58916 -3.947965,0.98965 -5.404088,2.19882 -19.404385,18.21857 -38.470883,36.79455 -57.604611,55.29641 -3.117968,3.28334 -6.768822,6.17709 -9.27249,9.98159 -1.1197865,1.90082 0.762916,3.90349 2.714553,3.83573 29.912002,0.37485 59.830108,0.23636 89.744678,0.3082 37.80928,-0.0372 75.62077,0.10086 113.42839,-0.26219 2.27348,-0.34478 5.23896,-0.87306 6.32353,-3.17993 0.56344,-2.38951 -2.24541,-3.57472 -3.4758,-5.1642 -22.21479,-21.05683 -44.57464,-41.96443 -67.17479,-62.60739 -1.01783,-0.77812 -1.90282,-2.12623 -3.3528,-1.96646 z"
   id="path1031" /><path
   style="font-variation-settings:normal;opacity:1;vector-effect:none;fill:#ffffff;fill-opacity:1;stroke-width:0.0156453;stroke-linecap:butt;stroke-linejoin:miter;stroke-miterlimit:4;stroke-dasharray:none;stroke-dashoffset:0;stroke-opacity:1;stop-color:#000000;stop-opacity:1"
   d="m 228.99545,48.919642 c -2.32658,0.410439 -3.73962,2.700014 -5.5373,4.046173 -19.42543,18.360588 -38.63264,36.952853 -57.78414,55.598635 -2.19705,2.37442 -4.87351,4.4054 -6.62952,7.13882 -0.64453,2.30664 1.9642,3.6469 3.19619,5.17823 18.61873,17.83489 37.55246,35.33963 56.44117,52.88769 3.14169,2.70212 5.97232,5.84831 9.44792,8.12046 1.78106,0.79654 4.12409,-0.53684 3.62605,-2.63855 0,-42.7774 0,-85.554799 0,-128.332197 -0.13486,-1.42583 -1.38712,-2.201073 -2.76037,-1.999261 z"
   id="path1033" /></svg>
