<?xml version="1.0" encoding="UTF-8" standalone="no"?>
<svg
   xmlns:dc="http://purl.org/dc/elements/1.1/"
   xmlns:cc="http://creativecommons.org/ns#"
   xmlns:rdf="http://www.w3.org/1999/02/22-rdf-syntax-ns#"
   xmlns:svg="http://www.w3.org/2000/svg"
   xmlns="http://www.w3.org/2000/svg"
   xmlns:sodipodi="http://sodipodi.sourceforge.net/DTD/sodipodi-0.dtd"
   xmlns:inkscape="http://www.inkscape.org/namespaces/inkscape"
   id="Capa_1"
   enable-background="new 0 0 520 520"
   height="512"
   viewBox="0 0 520 520"
   width="512"
   version="1.1"
   sodipodi:docname="pdf.svg"
   inkscape:version="1.0.1 (3bc2e813f5, 2020-09-07)">
  <metadata
     id="metadata1622">
    <rdf:RDF>
      <cc:Work
         rdf:about="">
        <dc:format>image/svg+xml</dc:format>
        <dc:type
           rdf:resource="http://purl.org/dc/dcmitype/StillImage" />
      </cc:Work>
    </rdf:RDF>
  </metadata>
  <defs
     id="defs1620" />
  <sodipodi:namedview
     pagecolor="#ffffff"
     bordercolor="#666666"
     borderopacity="1"
     objecttolerance="10"
     gridtolerance="10"
     guidetolerance="10"
     inkscape:pageopacity="0"
     inkscape:pageshadow="2"
     inkscape:window-width="1872"
     inkscape:window-height="1032"
     id="namedview1618"
     showgrid="false"
     inkscape:zoom="1.6289062"
     inkscape:cx="256"
     inkscape:cy="256"
     inkscape:window-x="48"
     inkscape:window-y="48"
     inkscape:window-maximized="0"
     inkscape:current-layer="Capa_1" />
  <g
     id="g1615">
    <path
       d="m450.821 129.612-120-125c-2.829-2.946-6.737-4.612-10.821-4.612h-210c-24.813 0-45 20.187-45 45v430c0 24.813 20.187 45 45 45h300c24.813 0 45-20.187 45-45v-335c0-3.872-1.498-7.595-4.179-10.388zm-310.821 95.388h100c8.284 0 15 6.716 15 15s-6.716 15-15 15h-100c-8.284 0-15-6.716-15-15s6.716-15 15-15zm240 210h-100c-8.284 0-15-6.716-15-15s6.716-15 15-15h100c8.284 0 15 6.716 15 15s-6.716 15-15 15zm0-60h-240c-8.284 0-15-6.716-15-15s6.716-15 15-15h240c8.284 0 15 6.716 15 15s-6.716 15-15 15zm0-60h-240c-8.284 0-15-6.716-15-15s6.716-15 15-15h240c8.284 0 15 6.716 15 15s-6.716 15-15 15zm0-130h-90c-8.284 0-15-6.716-15-15v-90c0-8.284 6.716-15 15-15s15 6.716 15 15v75h75c8.284 0 15 6.716 15 15s-6.716 15-15 15z"
       id="path1613" />
  </g>
  <path
     style="font-variation-settings:normal;opacity:1;vector-effect:none;fill:#ffffff;fill-opacity:1;stroke-width:0.0348021;stroke-linecap:butt;stroke-linejoin:miter;stroke-miterlimit:4;stroke-dasharray:none;stroke-dashoffset:0;stroke-opacity:1;stop-color:#000000;stop-opacity:1"
     d="m 144.16067,-1.6043165 c -14.5671,0.2406392 -29.19223,-0.3444473 -43.72302,0.71462825 C 81.8368,2.2041064 65.974038,18.062463 63.156328,36.710389 c -1.030144,36.253816 -0.466393,72.539691 -0.67477,108.806391 0.07971,105.54569 -0.287233,211.09344 0.292183,316.63774 0.113385,8.17573 -0.371913,16.75741 3.697482,24.18241 6.383752,13.84667 19.849054,24.98873 35.242897,26.58021 65.52156,1.07512 131.06014,0.72762 196.58922,0.78209 37.84371,-0.20676 75.70564,0.14972 113.53599,-0.8659 14.60619,-2.51587 27.41524,-12.69584 33.51439,-26.15467 4.56436,-7.45088 3.10033,-16.7057 3.8085,-25.0199 0.78712,-66.40558 0.20337,-132.82027 0.37735,-199.2295 -0.0998,-42.86415 0.1996,-85.77769 -0.14961,-128.61099 -3.2018,-7.055 -9.85273,-11.78085 -14.676,-17.6898 C 398.50093,77.85639 362.21181,39.638694 325.01799,2.3165468 322.09532,-1.281073 317.46371,-1.8873941 313.09713,-1.396803 256.78501,-1.470279 200.47288,-1.6587187 144.16067,-1.6043165 Z M 286.02758,65.830934 c 6.89214,-0.175056 13.17861,6.506108 12.18158,13.436096 0.53353,24.38204 0.20454,48.86742 0.29923,73.28932 1.31205,3.71388 6.37862,1.32277 9.36691,2 22.84001,0.24271 45.7523,-0.51555 68.53689,0.46373 6.86611,0.0976 11.53954,7.42284 10.40676,13.86122 -0.22496,6.52019 -6.43129,11.99836 -12.94086,11.24742 -28.70457,0.3656 -57.50359,0.58553 -86.15891,0.12501 -5.10099,0.20571 -10.68763,-1.10856 -13.25396,-5.98994 -3.2949,-4.31333 -1.12875,-10.14714 -1.77711,-15.19417 0.10513,-27.99149 -0.67085,-56.08163 0.2987,-84.009671 1.73949,-5.493005 7.20319,-9.581435 13.04077,-9.229015 z M 186.55756,223.32734 c 18.02551,0.19597 36.13808,-0.39317 54.08752,0.65827 6.5799,2.63784 11.00547,10.70656 7.56595,17.47962 -1.95729,4.61615 -6.61881,8.07339 -11.76869,7.38139 -32.23932,0.47828 -64.99023,0.56179 -97.32453,0.20717 -5.35306,0.62704 -10.9719,-1.99405 -13.00031,-7.19288 -3.41065,-7.03236 0.76831,-16.98831 8.67147,-18.02997 17.08076,-0.85118 34.53283,-0.32773 51.76859,-0.5036 z m 69.48681,58.81894 c 40.68196,0.17705 81.44241,-0.21741 122.07074,0.90168 10.9519,2.48942 12.05655,20.02005 1.66307,24.02878 -5.12574,2.53511 -11.22566,0.6719 -16.78657,1.24221 -76.03438,0 -152.06875,0 -228.10312,0 -5.73432,-1.70005 -10.35677,-6.89268 -9.8765,-13.08993 -0.40472,-7.2041 6.31147,-13.48635 13.46283,-12.41487 39.13937,-0.72046 78.39082,-0.5926 117.56955,-0.66787 z M 256,341.49161 c 40.55435,0 81.10871,0 121.66307,0 5.85439,2.17235 10.23116,8.25952 9.15228,14.71343 -0.35942,5.8768 -5.55526,11.41792 -11.69065,10.6175 -54.43928,0.80019 -109.02969,0.25633 -163.52638,0.41577 -25.69153,-0.24762 -51.44801,0.51529 -77.07314,-0.85941 -5.07634,0.0906 -8.8925,-5.18913 -9.41007,-9.96523 -1.43528,-7.98358 5.94573,-16.41294 14.13309,-14.92206 38.91727,0 77.83453,0 116.7518,0 z m 88.06835,59.241 c 12.07089,0.34955 24.24468,-0.72278 36.18225,1.15948 8.79372,4.15481 8.89193,18.47113 0.34053,23 -4.49869,3.10428 -10.5833,1.02587 -15.82251,1.6476 -30.15959,-0.10417 -60.72881,0.54552 -90.64272,-0.27111 -10.42785,-0.20493 -15.19135,-14.84743 -7.85851,-21.76858 3.34908,-3.64247 8.18298,-4.26076 12.85252,-3.76619 21.64947,-2e-4 43.29895,7.1e-4 64.94844,-0.001 z"
     id="path1624"
     transform="scale(1.015625)" />
</svg>
