<?xml version="1.0" encoding="UTF-8" standalone="no"?>
<svg
   xmlns:dc="http://purl.org/dc/elements/1.1/"
   xmlns:cc="http://creativecommons.org/ns#"
   xmlns:rdf="http://www.w3.org/1999/02/22-rdf-syntax-ns#"
   xmlns:svg="http://www.w3.org/2000/svg"
   xmlns="http://www.w3.org/2000/svg"
   xmlns:sodipodi="http://sodipodi.sourceforge.net/DTD/sodipodi-0.dtd"
   xmlns:inkscape="http://www.inkscape.org/namespaces/inkscape"
   id="Capa_1"
   enable-background="new 0 0 512 512"
   height="512"
   viewBox="0 0 512 512"
   width="512"
   version="1.1"
   sodipodi:docname="slack.svg"
   inkscape:version="1.0.1 (3bc2e813f5, 2020-09-07)">
  <metadata
     id="metadata25">
    <rdf:RDF>
      <cc:Work
         rdf:about="">
        <dc:format>image/svg+xml</dc:format>
        <dc:type
           rdf:resource="http://purl.org/dc/dcmitype/StillImage" />
      </cc:Work>
    </rdf:RDF>
  </metadata>
  <defs
     id="defs23" />
  <sodipodi:namedview
     pagecolor="#ffffff"
     bordercolor="#666666"
     borderopacity="1"
     objecttolerance="10"
     gridtolerance="10"
     guidetolerance="10"
     inkscape:pageopacity="0"
     inkscape:pageshadow="2"
     inkscape:window-width="1872"
     inkscape:window-height="1032"
     id="namedview21"
     showgrid="false"
     inkscape:zoom="1.7246094"
     inkscape:cx="256"
     inkscape:cy="255.42016"
     inkscape:window-x="48"
     inkscape:window-y="48"
     inkscape:window-maximized="0"
     inkscape:current-layer="Capa_1" />
  <g
     id="g18">
    <path
       d="m467 271h-151c-24.813 0-45 20.187-45 45s20.187 45 45 45h151c24.813 0 45-20.187 45-45s-20.187-45-45-45z"
       id="path2" />
    <path
       d="m196 151h-151c-24.813 0-45 20.187-45 45s20.187 45 45 45h151c24.813 0 45-20.187 45-45s-20.187-45-45-45z"
       id="path4" />
    <path
       d="m316 241c24.813 0 45-20.187 45-45v-151c0-24.813-20.187-45-45-45s-45 20.187-45 45v151c0 24.813 20.187 45 45 45z"
       id="path6" />
    <path
       d="m196 271c-24.813 0-45 20.187-45 45v151c0 24.813 20.187 45 45 45s45-20.187 45-45v-151c0-24.813-20.187-45-45-45z"
       id="path8" />
    <path
       d="m407 241h45c33.084 0 60-26.916 60-60s-26.916-60-60-60-60 26.916-60 60v45c0 8.284 6.716 15 15 15z"
       id="path10" />
    <path
       d="m105 271h-45c-33.084 0-60 26.916-60 60s26.916 60 60 60 60-26.916 60-60v-45c0-8.284-6.716-15-15-15z"
       id="path12" />
    <path
       d="m181 0c-33.084 0-60 26.916-60 60s26.916 60 60 60h45c8.284 0 15-6.716 15-15v-45c0-33.084-26.916-60-60-60z"
       id="path14" />
    <path
       d="m331 392h-45c-8.284 0-15 6.716-15 15v45c0 33.084 26.916 60 60 60s60-26.916 60-60-26.916-60-60-60z"
       id="path16" />
  </g>
  <path
     style="fill:#ffffff;stroke-width:0.579841"
     d="m 169.3137,118.54644 c -22.7107,-4.87303 -40.24894,-21.648915 -46.21631,-44.207397 -1.28211,-4.846779 -1.48873,-6.834922 -1.48873,-14.325453 0,-7.490533 0.20662,-9.478673 1.48873,-14.325454 3.00819,-11.371887 8.78595,-21.10107 17.25566,-29.056893 11.31898,-10.6322086 25.14356,-16.1249505 40.54403,-16.10883769 16.39176,0.01715 30.50011,5.81610719 42.03713,17.27853769 7.64231,7.592889 12.95931,16.783076 15.86392,27.420033 l 1.50601,5.515151 0.19566,27.946595 c 0.13156,18.790788 -0.01,28.708558 -0.4306,30.272338 -0.95617,3.55094 -3.94124,7.08488 -7.51577,8.89771 l -3.14416,1.59457 -28.1633,-0.0461 c -21.7584,-0.0356 -29.02044,-0.23001 -31.93227,-0.8548 z"
     id="path27" />
  <path
     style="fill:#ffffff;stroke-width:0.579841"
     d="m 306.94795,239.80817 c -8.7593,-2.0029 -15.49525,-5.78108 -22.30411,-12.51032 -5.56916,-5.50405 -8.78892,-10.66424 -11.39664,-18.26501 l -1.59148,-4.63873 v -83.49717 c 0,-93.377603 -0.31912,-86.012297 4.12023,-95.093995 10.9218,-22.3429928 37.68688,-31.6899839 59.75625,-20.8682766 10.84873,5.3196696 18.74626,14.4436406 22.97159,26.5389326 l 1.86767,5.346331 0.15674,81.456628 c 0.16989,88.28362 0.24158,86.0055 -2.95565,93.92105 -5.15397,12.75992 -15.77663,22.50126 -29.09237,26.67868 -5.24555,1.64564 -16.31552,2.12472 -21.53223,0.93188 z"
     id="path29" />
  <path
     style="fill:#ffffff;stroke-width:0.579841"
     d="m 402.19397,239.79859 c -3.44056,-1.25047 -6.28684,-3.82858 -8.07171,-7.31124 l -1.61954,-3.16006 0.18474,-29.57191 0.18474,-29.57191 1.61035,-5.21858 c 6.513,-21.10626 22.20156,-36.31852 43.17841,-41.8675 4.84678,-1.28211 6.83492,-1.48873 14.32545,-1.48873 7.49053,0 9.47867,0.20662 14.32545,1.48873 19.07976,5.04715 34.66339,18.90656 41.3766,36.79857 3.11604,8.30484 3.91543,13.50574 3.577,23.27225 -0.33692,9.72277 -1.50329,14.90983 -5.06332,22.51747 -7.68336,16.419 -21.74766,28.22585 -39.42977,33.10094 l -5.5085,1.51874 -28.41223,0.15466 c -23.26698,0.12666 -28.81886,0.007 -30.65767,-0.66143 z"
     id="path31" />
  <path
     style="fill:#ffffff;stroke-width:0.579841"
     d="m 307.23266,359.79095 c -8.68488,-1.74315 -15.59058,-5.5669 -22.51346,-12.46592 -9.65367,-9.62039 -13.77638,-20.0488 -13.18079,-33.34089 0.52264,-11.66414 4.63421,-20.86908 13.10543,-29.3403 5.56417,-5.56417 10.78124,-8.80905 18.32332,-11.39664 l 4.63873,-1.59148 81.75764,-0.16229 c 71.3093,-0.14155 82.31753,-0.0496 86.13865,0.7196 17.03199,3.42853 30.51715,16.23962 34.75873,33.02129 1.57379,6.22665 1.57379,15.33189 0,21.55854 -3.85986,15.2714 -14.99619,26.8364 -31.02195,32.21608 l -4.05889,1.36252 -82.04757,0.0963 c -66.36427,0.0779 -82.78392,-0.0515 -85.89984,-0.67686 z"
     id="path33" />
  <path
     style="fill:#ffffff;stroke-width:0.579841"
     d="M 35.966564,239.7344 C 19.168953,236.06678 5.9192552,223.30436 1.7390896,206.76568 c -1.5737935,-6.22665 -1.5737935,-15.33189 0,-21.55854 C 5.5170163,170.2599 16.248808,158.81478 31.473601,153.49621 l 5.346331,-1.86767 h 83.207248 c 93.95815,0 85.91384,-0.39467 96.13822,4.71673 10.84772,5.42303 18.96734,15.20227 22.81563,27.47909 1.16301,3.71025 1.35422,5.50281 1.32818,12.45197 -0.0271,7.22591 -0.20168,8.62742 -1.58916,12.75651 -2.51082,7.47208 -5.77358,12.73301 -11.36389,18.32332 -5.56417,5.56417 -10.78124,8.80905 -18.32332,11.39664 l -4.63873,1.59148 -82.33748,0.10474 c -69.066662,0.0879 -82.942316,-0.0273 -86.090066,-0.71462 z"
     id="path35" />
  <path
     style="fill:#ffffff;stroke-width:0.579841"
     d="M 52.330507,390.23499 C 30.718846,387.18607 11.853827,372.20572 4.3115367,352.10405 1.1955018,343.7992 0.39611312,338.5983 0.73454332,328.83179 1.0872753,318.65254 2.274276,313.67783 6.3526072,305.28652 14.104496,289.33674 27.691145,278.10187 45.125299,273.22518 l 5.610828,-1.56946 H 80.01812 c 29.02427,0 29.30289,0.0112 31.65626,1.27048 3.03078,1.62179 5.62549,4.58066 6.8665,7.83021 0.87774,2.29833 0.9555,5.48733 0.77552,31.80728 l -0.20002,29.25284 -1.60464,5.21858 c -7.81454,25.4142 -29.410798,42.44179 -55.116776,43.45686 -3.542147,0.13987 -8.071151,0.0242 -10.064457,-0.25698 z"
     id="path37" />
  <path
     style="fill:#ffffff;stroke-width:0.579841"
     d="m 191.50606,511.34706 c -11.24615,-1.03495 -22.54811,-7.04578 -29.74666,-15.82047 -3.38179,-4.12225 -6.84251,-10.55071 -8.76834,-16.28763 l -1.36252,-4.05889 -0.15674,-81.45663 c -0.16989,-88.28362 -0.24158,-86.0055 2.95565,-93.92104 2.42334,-5.99957 5.11891,-9.97164 10.24752,-15.10025 9.64925,-9.64925 20.07405,-13.76363 33.34089,-13.15871 11.72449,0.53459 20.5805,4.45133 29.05765,12.85131 5.87765,5.82414 9.01983,10.82083 11.67929,18.57241 l 1.59148,4.63873 0.16229,81.75764 c 0.14155,71.3093 0.0496,82.31753 -0.7196,86.13865 -3.43669,17.07255 -16.43441,30.71748 -33.07349,34.72039 -5.57623,1.34148 -9.6091,1.63968 -15.20742,1.12449 z"
     id="path39" />
  <path
     style="fill:#ffffff;stroke-width:0.579841"
     d="m 325.777,511.33186 c -17.41891,-1.34414 -34.29851,-11.3727 -44.27467,-26.30463 -3.91119,-5.85411 -6.35275,-11.23157 -8.28835,-18.25486 l -1.51812,-5.5085 -0.19566,-27.94659 c -0.13156,-18.79079 0.01,-28.70855 0.43059,-30.27234 0.9599,-3.56477 3.94022,-7.08379 7.55677,-8.92268 l 3.18515,-1.61954 29.57191,0.18474 29.57191,0.18474 5.21858,1.61035 c 21.10626,6.513 36.31852,22.20156 41.8675,43.17841 1.28211,4.84678 1.48873,6.83492 1.48873,14.32545 0,7.49053 -0.20662,9.47867 -1.48873,14.32545 -3.00114,11.34523 -7.9493,19.77097 -16.61549,28.2929 -12.63188,12.4216 -28.47338,18.11891 -46.51012,16.7271 z"
     id="path41" />
</svg>
