<?xml version="1.0" encoding="UTF-8" standalone="no"?>
<svg
   xmlns:dc="http://purl.org/dc/elements/1.1/"
   xmlns:cc="http://creativecommons.org/ns#"
   xmlns:rdf="http://www.w3.org/1999/02/22-rdf-syntax-ns#"
   xmlns:svg="http://www.w3.org/2000/svg"
   xmlns="http://www.w3.org/2000/svg"
   xmlns:sodipodi="http://sodipodi.sourceforge.net/DTD/sodipodi-0.dtd"
   xmlns:inkscape="http://www.inkscape.org/namespaces/inkscape"
   id="Bold"
   enable-background="new 0 0 24 24"
   height="512"
   viewBox="0 0 24 24"
   width="512"
   version="1.1"
   sodipodi:docname="steam.svg"
   inkscape:version="1.0.1 (3bc2e813f5, 2020-09-07)">
  <metadata
     id="metadata11">
    <rdf:RDF>
      <cc:Work
         rdf:about="">
        <dc:format>image/svg+xml</dc:format>
        <dc:type
           rdf:resource="http://purl.org/dc/dcmitype/StillImage" />
      </cc:Work>
    </rdf:RDF>
  </metadata>
  <defs
     id="defs9" />
  <sodipodi:namedview
     pagecolor="#ffffff"
     bordercolor="#666666"
     borderopacity="1"
     objecttolerance="10"
     gridtolerance="10"
     guidetolerance="10"
     inkscape:pageopacity="0"
     inkscape:pageshadow="2"
     inkscape:window-width="1872"
     inkscape:window-height="1032"
     id="namedview7"
     showgrid="false"
     inkscape:zoom="1.7246094"
     inkscape:cx="256"
     inkscape:cy="255.42016"
     inkscape:window-x="48"
     inkscape:window-y="48"
     inkscape:window-maximized="0"
     inkscape:current-layer="Bold" />
  <path
     d="m17.903 1.75c-3.349 0-6.081 2.696-6.107 6.02l-3.803 5.427c-1.061-.096-1.976.123-2.785.614l-5.208-2.097v5.727l3.08 1.233c.445 2.039 2.278 3.576 4.447 3.576 2.358 0 4.312-1.803 4.527-4.099l5.855-4.259c3.359 0 6.091-2.711 6.091-6.073l-.001-.001c0-3.346-2.732-6.068-6.096-6.068zm-13.334 17.521c.546.208 1.098.437 1.645.651 1.367.56 2.92-.107 3.466-1.468.552-1.361-.118-2.897-1.483-3.442l-1.393-.56c2.074-.46 4.071 1.094 4.072 3.255-.001 1.852-4.678 4.608-6.307 1.564zm13.34-7.385c-2.261 0-4.098-1.815-4.098-4.067 0-2.242 1.832-4.067 4.098-4.067 2.245 0 4.082 1.825 4.082 4.067 0 2.258-1.838 4.073-4.082 4.067z"
     id="path2" />
  <path
     d="m17.92 4.556c-1.805 0-3.267 1.457-3.267 3.255s1.457 3.255 3.267 3.255c1.794 0 3.267-1.452 3.267-3.255s-1.473-3.255-3.267-3.255z"
     id="path4" />
  <path
     style="fill:#ffffff;stroke-width:0.579841"
     d="M 146.954,473.41846 C 136.53671,471.89732 127.56272,469.08232 117.99773,464.3353 93.146594,452.00193 75.008446,430.30449 67.385572,403.79139 L 65.748129,398.0962 33.019026,385.00197 0.28992072,371.90773 0.14227662,311.48954 C -0.00156644,252.6268 0.02278156,251.07135 1.0880213,251.07135 c 0.6013638,0 25.3940797,9.78482 55.0949237,21.74405 29.700845,11.95923 54.265435,21.74406 54.587975,21.74406 0.32254,0 3.77657,-1.55583 7.6756,-3.45738 3.89903,-1.90156 9.15492,-4.14054 11.67975,-4.9755 10.50486,-3.47398 23.5899,-5.26885 34.25878,-4.6993 l 6.37826,0.34051 39.42922,-56.25694 c 21.68607,-30.94132 40.0163,-57.32824 40.73386,-58.63761 1.0253,-1.87094 1.30691,-3.32331 1.31526,-6.78324 0.0201,-8.33493 2.43575,-21.73695 5.81018,-32.23496 15.03576,-46.777033 55.28994,-81.09247 104.10542,-88.746626 8.14166,-1.276595 23.49696,-1.708684 31.84502,-0.896101 56.65381,5.514576 103.00595,46.614951 114.799,101.792097 2.00916,9.40043 2.67883,16.22506 2.67941,27.30585 0.003,53.21866 -32.48925,100.4098 -82.63386,120.0167 -11.31232,4.4232 -29.2962,8.38277 -38.13915,8.39722 -1.69601,0.003 -4.47378,0.17198 -6.17283,0.37601 -2.98356,0.3583 -5.21363,1.91567 -65.23216,45.55482 l -62.143,45.18383 -0.94973,5.62578 c -6.57045,38.92018 -34.26604,69.35801 -71.83805,78.951 -11.0694,2.82626 -26.22369,3.63742 -37.4179,2.00284 z m 11.70164,-34.20808 c 28.43041,-4.90965 58.7805,-25.37361 69.67301,-46.97795 2.99286,-5.9361 3.83999,-9.69269 3.74054,-16.58738 -0.61881,-42.89862 -40.55391,-75.52057 -83.53289,-68.23585 -2.01965,0.34232 -3.45476,0.81933 -3.18913,1.06003 0.26562,0.24069 8.15869,3.53065 17.54015,7.311 19.98777,8.05428 24.36156,10.60488 31.97403,18.6458 7.26103,7.66971 11.90257,16.30887 14.25116,26.52527 1.61179,7.01129 1.38608,18.01068 -0.51771,25.22976 -5.56644,21.10767 -21.75538,36.78209 -42.90944,41.54569 -5.97219,1.34485 -17.39591,1.33952 -23.33428,-0.0109 -2.55131,-0.58017 -13.58251,-4.5909 -24.5138,-8.91272 -10.93128,-4.32182 -20.020411,-7.7125 -20.198057,-7.53485 -0.177646,0.17765 0.645347,1.84497 1.828878,3.70516 8.525849,13.40031 19.767229,21.31121 34.475269,24.26128 5.31471,1.06599 18.47346,1.05303 24.71227,-0.0244 z M 397.19139,252.49146 c 11.84705,-2.00598 25.90021,-7.90246 36.12041,-15.15556 6.00685,-4.26296 15.34933,-13.61741 19.72512,-19.75041 9.30358,-13.03967 14.92926,-28.71525 15.97124,-44.50282 1.77265,-26.85822 -7.76201,-51.18699 -27.25042,-69.53256 -11.39484,-10.726631 -24.82328,-17.886252 -40.50746,-21.597296 -7.53003,-1.781687 -23.13445,-2.489793 -30.80497,-1.397885 -19.95163,2.840142 -37.06906,11.414713 -50.95267,25.523531 -11.94404,12.13779 -19.5116,26.10958 -23.29561,43.01008 -1.16475,5.20217 -1.34765,7.59292 -1.34765,17.61588 0,9.04835 0.2327,12.67688 1.05893,16.5116 2.55753,11.87016 7.03626,22.59158 13.50999,32.34092 4.63465,6.97973 16.26314,18.53593 23.41069,23.26516 19.15399,12.6734 41.81758,17.48671 64.3624,13.66936 z"
     id="path13"
     transform="scale(0.046875)" />
  <path
     style="fill:#ffffff;stroke-width:0.579841"
     d="m 374.28766,235.36119 c -14.93862,-1.79864 -29.88882,-8.9351 -40.41527,-19.29218 -10.55778,-10.3879 -17.49161,-23.4943 -19.97595,-37.75876 -1.24707,-7.1604 -0.78937,-21.25103 0.91054,-28.03148 8.0501,-32.10952 37.75064,-54.282962 70.49766,-52.631226 18.89621,0.953111 34.8905,8.382746 47.83692,22.221096 28.3373,30.28956 23.39342,78.76128 -10.49922,102.93853 -13.79364,9.83967 -31.88602,14.53688 -48.35468,12.55402 z"
     id="path15"
     transform="scale(0.046875)" />
</svg>
