<?xml version="1.0" encoding="UTF-8" standalone="no"?>
<svg
   xmlns:dc="http://purl.org/dc/elements/1.1/"
   xmlns:cc="http://creativecommons.org/ns#"
   xmlns:rdf="http://www.w3.org/1999/02/22-rdf-syntax-ns#"
   xmlns:svg="http://www.w3.org/2000/svg"
   xmlns="http://www.w3.org/2000/svg"
   xmlns:sodipodi="http://sodipodi.sourceforge.net/DTD/sodipodi-0.dtd"
   xmlns:inkscape="http://www.inkscape.org/namespaces/inkscape"
   version="1.1"
   id="Capa_1"
   x="0px"
   y="0px"
   viewBox="0 0 386.651 386.651"
   style="enable-background:new 0 0 386.651 386.651;"
   xml:space="preserve"
   sodipodi:docname="trading.svg"
   inkscape:version="1.0.1 (3bc2e813f5, 2020-09-07)"><metadata
   id="metadata1328"><rdf:RDF><cc:Work
       rdf:about=""><dc:format>image/svg+xml</dc:format><dc:type
         rdf:resource="http://purl.org/dc/dcmitype/StillImage" /></cc:Work></rdf:RDF></metadata><defs
   id="defs1326" /><sodipodi:namedview
   pagecolor="#ffffff"
   bordercolor="#666666"
   borderopacity="1"
   objecttolerance="10"
   gridtolerance="10"
   guidetolerance="10"
   inkscape:pageopacity="0"
   inkscape:pageshadow="2"
   inkscape:window-width="1872"
   inkscape:window-height="1032"
   id="namedview1324"
   showgrid="false"
   inkscape:zoom="1.9293885"
   inkscape:cx="193.3255"
   inkscape:cy="193.3255"
   inkscape:window-x="48"
   inkscape:window-y="48"
   inkscape:window-maximized="0"
   inkscape:current-layer="Capa_1" />
<g
   id="g1291">
	<path
   d="M342.367,135.781c-2.674-1.367-5.889-1.122-8.324,0.635l-138.556,99.968l-89.233-83.725   c-3.032-2.844-7.736-2.892-10.826-0.112l-74.395,66.959c-1.685,1.518-2.648,3.679-2.648,5.946v91.451c0,4.418,3.582,8,8,8h312.339   c4.418,0,8-3.582,8-8v-174C346.724,139.899,345.041,137.149,342.367,135.781z M53.507,308.903H34.385v-79.889l19.122-17.211   V308.903z M88.045,308.903H69.507v-111.5l18.538-16.685V308.903z M122.582,308.903h-18.538V172.526l18.538,17.393V308.903z    M157.12,308.903h-18.538V204.931l18.538,17.394V308.903z M192.015,308.903H173.12v-71.565l16.227,15.226   c0.791,0.741,1.702,1.288,2.667,1.65V308.903z M226.91,308.903h-18.896v-61.828l18.896-13.634V308.903z M261.806,308.903H242.91   v-87.006l18.895-13.633V308.903z M296.701,308.903h-18.896V196.72l18.896-13.634V308.903z M330.724,308.903h-18.022v-137.36   l18.022-13.003V308.903z"
   id="path1287" />
	<path
   d="M385.375,65.087c-1.439-2.148-3.904-3.404-6.461-3.337l-50.696,1.368c-3.471,0.094-6.429,2.547-7.161,5.941   c-0.732,3.395,0.95,6.85,4.074,8.366l11.846,5.75L196.96,183.012l-95.409-86.504c-4.738-4.296-11.955-4.322-16.723-0.062   L4.173,168.491c-5.149,4.599-5.594,12.501-0.995,17.649c4.598,5.148,12.499,5.594,17.649,0.995l72.265-64.55l94.533,85.709   c2.369,2.147,5.376,3.239,8.398,3.239c2.532,0,5.074-0.767,7.255-2.322L350.82,104.01l0.701,11.074   c0.22,3.464,2.777,6.329,6.193,6.939c0.444,0.079,0.889,0.118,1.328,0.118c2.938,0,5.662-1.724,6.885-4.483l20.077-45.327   C387.052,69.968,386.815,67.234,385.375,65.087z"
   id="path1289" />
</g>
<g
   id="g1293">
</g>
<g
   id="g1295">
</g>
<g
   id="g1297">
</g>
<g
   id="g1299">
</g>
<g
   id="g1301">
</g>
<g
   id="g1303">
</g>
<g
   id="g1305">
</g>
<g
   id="g1307">
</g>
<g
   id="g1309">
</g>
<g
   id="g1311">
</g>
<g
   id="g1313">
</g>
<g
   id="g1315">
</g>
<g
   id="g1317">
</g>
<g
   id="g1319">
</g>
<g
   id="g1321">
</g>
<path
   style="font-variation-settings:normal;opacity:1;vector-effect:none;fill:#ffffff;fill-opacity:1;stroke-width:0.029382;stroke-linecap:butt;stroke-linejoin:miter;stroke-miterlimit:4;stroke-dasharray:none;stroke-dashoffset:0;stroke-opacity:1;stop-color:#000000;stop-opacity:1"
   d="m 373.51536,60.260349 c -15.41509,0.473446 -30.88701,0.213776 -46.25797,1.537509 -7.70084,0.163125 -10.74704,11.583216 -4.58492,15.855874 3.39121,2.368981 7.29562,3.846346 10.87617,5.889576 C 288.11488,116.04999 242.56178,148.38894 197.11759,180.88025 165.40169,152.33726 134.17703,123.23784 101.97354,95.243509 97.186641,90.265063 88.285189,90.508968 83.744699,95.718106 56.294654,119.68117 28.924196,143.7535 2.0964787,168.41071 c -6.5400826,6.45996 -3.7338999,18.49901 4.4571682,22.15626 4.9640921,2.75831 11.1345151,1.46784 15.2240191,-2.25237 23.853939,-20.77998 47.251495,-42.18869 70.992778,-63.03608 17.936286,14.97194 34.847986,31.11798 52.287006,46.66317 14.80089,13.22566 29.31111,26.81772 44.47495,39.61437 5.3872,3.14796 12.28611,1.45409 16.68468,-2.62688 47.31341,-33.06161 93.88136,-67.18342 141.34588,-100.02769 2.62201,-2.86055 1.77237,1.30725 2.07872,3.05693 -0.0128,4.71698 1.86325,10.53001 7.15449,11.50605 4.67264,1.19775 9.83381,-1.6323 11.03797,-6.38629 6.67298,-14.75224 13.68956,-29.390596 19.43437,-44.534551 2.30837,-4.659591 -0.47247,-10.700047 -5.48972,-11.96238 -2.72086,-0.478781 -5.51441,-0.291906 -8.26343,-0.3209 z"
   id="path1330" /><path
   style="font-variation-settings:normal;opacity:1;vector-effect:none;fill:#ffffff;fill-opacity:1;stroke-width:0.029382;stroke-linecap:butt;stroke-linejoin:miter;stroke-miterlimit:4;stroke-dasharray:none;stroke-dashoffset:0;stroke-opacity:1;stop-color:#000000;stop-opacity:1"
   d="m 338.68912,133.3162 c -6.28645,0.49522 -10.49962,6.06197 -15.66916,9.03815 -42.49369,30.57579 -84.93236,61.22899 -127.37932,91.86919 -29.71515,-27.75235 -59.18808,-55.77946 -89.08162,-83.32972 -3.65475,-2.98806 -9.350315,-2.49 -12.375755,1.18516 -24.979141,21.49593 -49.52769,43.50733 -73.580883,66.03477 -3.081497,2.10256 -3.92654,5.76732 -3.747544,9.28484 -0.308092,29.11832 -0.31576,58.24734 0.01511,87.36541 -0.232295,3.85967 0.780604,8.01842 4.289199,10.17703 3.708058,2.92898 8.844534,0.92766 13.201438,1.51428 98.038975,-0.0956 196.079195,0.20489 294.117365,-0.20247 4.98565,-0.40592 10.32315,0.59182 15.07832,-1.15085 3.4239,-1.87086 4.65096,-5.72464 4.36606,-9.4134 0.58757,-45.39127 0.17934,-90.79208 0.28091,-136.18709 -0.23883,-13.27579 0.40816,-26.61172 -0.6585,-39.85031 -1.01394,-3.76875 -4.984,-6.50679 -8.85562,-6.33499 z m -9.49642,100.12685 c 0,24.4876 10e-6,48.9752 0,73.4628 -4.88604,0 -9.77209,0 -14.65813,0 -10e-6,-44.87031 0,-89.74063 0,-134.61094 4.88085,-3.52223 9.74354,-7.07001 14.65813,-10.54515 0,23.89776 10e-6,47.79553 0,71.69329 z m -222.08299,-55.6817 c 4.59153,4.29455 9.15112,8.60509 13.72682,12.91799 1e-5,38.74217 0,77.48434 0,116.22651 -5.05881,0 -10.11762,0 -15.17643,0 -1e-5,-43.49831 0,-86.99661 0,-130.49491 0.4832,0.45013 0.96641,0.90027 1.44961,1.35041 z m -20.999205,66.77451 c 0,20.79 0,41.58 0,62.36999 -4.886045,0 -9.772091,0 -14.658136,0 0,-36.32007 -5e-6,-72.64014 0,-108.9602 4.890036,-4.40115 9.786277,-8.79554 14.658136,-13.21662 0,19.93561 5e-6,39.87122 0,59.80683 z M 294.79365,187.94714 c 0.31148,39.65205 0.14934,79.30586 0.19132,118.95871 -5.23157,0 -10.46316,0 -15.69473,0 0.0891,-36.4118 -0.20798,-72.89257 0.33304,-109.26086 4.96162,-3.79933 10.02639,-7.40243 15.15215,-11.03106 0.006,0.4444 0.0122,0.8888 0.0182,1.33321 z m -153.55213,21.69769 c 4.78474,4.39639 9.4995,8.86798 14.24006,13.31178 0.0258,27.98308 0.0521,55.96616 0.079,83.94924 -5.05814,0 -10.11628,0 -15.17441,0 0.0958,-32.61323 -0.20792,-65.29171 0.19537,-97.86233 l 0.38314,0.34905 z m 118.79472,2.90531 c 0.4303,31.40934 0.13135,62.91047 0.2227,94.35571 -5.23123,0 -10.46248,0 -15.69372,0 0.0179,-28.10051 0.0354,-56.20102 0.0526,-84.30152 5.12534,-3.64543 10.23379,-7.31487 15.38497,-10.92376 l 0.0199,0.51792 z m -208.256962,7.27947 c 0.199092,29.02496 0.09796,58.05085 0.123501,87.07624 -5.23158,0 -10.46316,0 -15.69474,0 0,-25.76242 0,-51.52485 0,-77.28728 5.173101,-4.64892 10.305275,-9.34385 15.528722,-13.93636 0.01417,1.38246 0.02834,2.76493 0.04252,4.1474 z M 224.799,237.39002 c 0.40269,23.14004 0.1358,46.34713 0.21562,69.51583 -5.05881,0 -10.11763,0 -15.17644,0 0,-19.6849 0,-39.3698 0,-59.0547 4.98038,-3.58606 9.94948,-7.18778 14.94867,-10.74761 z m -48.87194,4.86209 c 4.7941,4.30041 9.22857,9.05241 14.36153,12.94836 0,17.23513 0,34.47025 0,51.70538 -5.05881,0 -10.11763,0 -15.17644,0 0.0356,-21.74078 -0.10355,-43.54327 0.16906,-65.24594 l 0.38202,0.35028 z"
   id="path1332" /></svg>
