<?xml version="1.0" encoding="UTF-8" standalone="no"?>
<svg
   xmlns:dc="http://purl.org/dc/elements/1.1/"
   xmlns:cc="http://creativecommons.org/ns#"
   xmlns:rdf="http://www.w3.org/1999/02/22-rdf-syntax-ns#"
   xmlns:svg="http://www.w3.org/2000/svg"
   xmlns="http://www.w3.org/2000/svg"
   xmlns:sodipodi="http://sodipodi.sourceforge.net/DTD/sodipodi-0.dtd"
   xmlns:inkscape="http://www.inkscape.org/namespaces/inkscape"
   fill="#000000"
   viewBox="0 0 50 50"
   width="250px"
   height="250px"
   version="1.1"
   id="svg920"
   sodipodi:docname="vivaldi.svg"
   inkscape:version="1.0.1 (3bc2e813f5, 2020-09-07)">
  <metadata
     id="metadata926">
    <rdf:RDF>
      <cc:Work
         rdf:about="">
        <dc:format>image/svg+xml</dc:format>
        <dc:type
           rdf:resource="http://purl.org/dc/dcmitype/StillImage" />
      </cc:Work>
    </rdf:RDF>
  </metadata>
  <defs
     id="defs924" />
  <sodipodi:namedview
     pagecolor="#ffffff"
     bordercolor="#666666"
     borderopacity="1"
     objecttolerance="10"
     gridtolerance="10"
     guidetolerance="10"
     inkscape:pageopacity="0"
     inkscape:pageshadow="2"
     inkscape:window-width="1872"
     inkscape:window-height="1032"
     id="namedview922"
     showgrid="false"
     inkscape:zoom="2.984"
     inkscape:cx="125"
     inkscape:cy="125"
     inkscape:window-x="48"
     inkscape:window-y="48"
     inkscape:window-maximized="0"
     inkscape:current-layer="svg920" />
  <path
     d="M43.37,6.62C39.72,3,34.49,3,25,3S10.28,3,6.63,6.64C3,10.27,3,15.51,3,25c0,9.5,0,14.74,3.63,18.38C10.28,47,15.51,47,25,47s14.72,0,18.37-3.64C47,39.73,47,34.49,47,25C47,15.5,47,10.26,43.37,6.62z M24.99,41c-4.09,0-8.18-1.56-11.3-4.69c-6.23-6.24-6.23-16.37,0-22.62C16.82,10.56,20.91,9,25,9s8.18,1.56,11.3,4.69c6.24,6.24,6.24,16.37,0,22.62C33.18,39.44,29.08,41,24.99,41z"
     id="path916" />
  <path
     d="M35.5,21.29l-7.41,12.86c-0.63,1.11-1.61,1.75-2.82,1.84C25.17,36,25.08,36,24.98,36c-1.28,0-2.33-0.61-3-1.74c-1.32-2.26-2.62-4.53-3.93-6.8l-1.81-3.14c-0.58-1.02-1.17-2.04-1.76-3.06c-0.62-1.08-0.64-2.38-0.05-3.45c0.58-1.07,1.66-1.74,2.89-1.81c1.36-0.08,2.49,0.56,3.2,1.78c0.41,0.7,0.72,1.24,1.05,1.81l1,1.73C24.04,23.81,24.83,25,27,25c1.04,0,3-0.42,3-2c0-0.74-0.29-1.33-0.55-1.84c-0.53-1.04-0.55-2.18-0.08-3.15c0.46-0.98,1.35-1.68,2.45-1.92c0.92-0.2,1.9,0,2.7,0.56c0.8,0.56,1.32,1.42,1.44,2.35C36.08,19.78,35.93,20.56,35.5,21.29z"
     id="path918" />
  <path
     style="font-variation-settings:normal;opacity:1;vector-effect:none;fill:#ffffff;fill-opacity:1;stroke-width:0.0189978;stroke-linecap:butt;stroke-linejoin:miter;stroke-miterlimit:4;stroke-dasharray:none;stroke-dashoffset:0;stroke-opacity:1;stop-color:#000000;stop-opacity:1"
     d="M 118.39838,13.271956 C 99.033073,13.556365 79.382158,12.640618 60.35248,16.926865 47.035468,19.885797 34.39272,27.116587 26.457296,38.407092 17.277988,51.002962 15.178513,66.998807 13.93872,82.110784 c -0.742374,17.034132 -0.465367,34.099266 -0.53907,51.146796 0.230538,16.62084 -0.533161,33.37086 2.276446,49.83182 1.953898,12.80304 6.659372,25.74193 16.236291,34.83655 9.382449,10.05482 22.998987,14.70659 36.302556,16.59891 22.885429,3.21257 46.068617,2.07987 69.100627,2.14254 18.46188,-0.22021 37.23294,0.31271 55.26098,-4.33519 13.22349,-3.36598 25.27388,-11.54794 32.5832,-23.15978 8.12235,-12.72944 9.96993,-28.17688 10.98903,-42.91725 0.73223,-20.90334 0.34814,-41.8284 0.39776,-62.74083 -0.0428,-17.044769 -0.30059,-34.487788 -5.65682,-50.84307 -5.47411,-16.699346 -19.78825,-30.037128 -36.73312,-34.583274 -19.39183,-5.325498 -39.72613,-4.609493 -59.64428,-4.812855 -5.3713,-0.01039 -10.74262,-0.0091 -16.11394,-0.0032 z m 6.62453,33.590608 c 15.82716,0.03168 31.44958,4.890104 44.58186,13.952433 6.76099,4.735385 12.63355,10.796273 17.77807,17.134587 8.5895,11.413985 13.95538,25.242486 15.25783,39.401736 0.0756,7.02656 0.53694,14.42409 -0.76255,21.20274 -2.32987,13.0514 -7.9899,25.72919 -16.46673,35.91551 -10.20247,12.53304 -24.44831,21.90712 -40.01383,25.92075 -6.8753,2.03725 -14.01524,2.62711 -21.18753,2.56497 -11.26628,0.3321 -22.89516,-2.62721 -33.030942,-7.45406 -20.09893,-9.69341 -35.83385,-28.3465 -41.50012,-49.92264 -3.03439,-11.08247 -3.229507,-22.21398 -1.647409,-33.60182 4.150629,-25.967108 22.26137,-48.758275 46.427955,-58.942618 9.646546,-4.106843 20.067246,-6.19957 30.563396,-6.171588 z"
     id="path928"
     transform="scale(0.2)" />
  <path
     style="font-variation-settings:normal;opacity:1;vector-effect:none;fill:#ffffff;fill-opacity:1;stroke-width:0.0189978;stroke-linecap:butt;stroke-linejoin:miter;stroke-miterlimit:4;stroke-dasharray:none;stroke-dashoffset:0;stroke-opacity:1;stop-color:#000000;stop-opacity:1"
     d="m 87.283219,78.182599 c -9.584713,-0.02285 -18.25316,8.054156 -18.962461,17.602997 -0.628772,4.813544 1.301679,9.417754 3.761598,13.438204 11.939931,20.95427 23.981651,41.85523 36.155064,62.67411 3.11521,5.43365 8.7574,9.47545 15.10583,9.85913 7.46872,0.56248 15.24087,-3.41992 18.51994,-10.27766 13.07175,-22.14999 25.98785,-44.39947 38.43264,-66.90809 2.71159,-6.162834 1.55596,-13.784514 -2.76698,-18.950584 -5.01846,-6.717916 -14.67862,-9.140396 -22.32372,-5.785064 -8.5874,3.573823 -14.04561,13.929158 -11.00404,22.931568 1.37112,4.81576 5.12602,9.47081 3.50988,14.69454 -2.42272,4.74619 -8.55636,5.5539 -13.3505,5.52098 -4.18088,0.24045 -8.2707,-1.44888 -11.07099,-4.55259 -5.08351,-5.13605 -8.08345,-11.87488 -11.88567,-17.93081 -3.38034,-5.516401 -6.26085,-11.409559 -10.25759,-16.511028 -3.52036,-3.806398 -8.692387,-5.920147 -13.863001,-5.805703 z"
     id="path930"
     transform="scale(0.2)" />
</svg>
