<?xml version="1.0" encoding="UTF-8" standalone="no"?>
<svg
   xmlns:dc="http://purl.org/dc/elements/1.1/"
   xmlns:cc="http://creativecommons.org/ns#"
   xmlns:rdf="http://www.w3.org/1999/02/22-rdf-syntax-ns#"
   xmlns:svg="http://www.w3.org/2000/svg"
   xmlns="http://www.w3.org/2000/svg"
   xmlns:sodipodi="http://sodipodi.sourceforge.net/DTD/sodipodi-0.dtd"
   xmlns:inkscape="http://www.inkscape.org/namespaces/inkscape"
   version="1.1"
   id="Layer_1"
   x="0px"
   y="0px"
   viewBox="0 0 512 512"
   style="enable-background:new 0 0 512 512;"
   xml:space="preserve"
   sodipodi:docname="vm.svg"
   inkscape:version="1.0.1 (3bc2e813f5, 2020-09-07)"><metadata
   id="metadata2414"><rdf:RDF><cc:Work
       rdf:about=""><dc:format>image/svg+xml</dc:format><dc:type
         rdf:resource="http://purl.org/dc/dcmitype/StillImage" /></cc:Work></rdf:RDF></metadata><defs
   id="defs2412" /><sodipodi:namedview
   pagecolor="#ffffff"
   bordercolor="#666666"
   borderopacity="1"
   objecttolerance="10"
   gridtolerance="10"
   guidetolerance="10"
   inkscape:pageopacity="0"
   inkscape:pageshadow="2"
   inkscape:window-width="1872"
   inkscape:window-height="1032"
   id="namedview2410"
   showgrid="false"
   inkscape:zoom="1.2519531"
   inkscape:cx="257.5975"
   inkscape:cy="256"
   inkscape:window-x="48"
   inkscape:window-y="48"
   inkscape:window-maximized="0"
   inkscape:current-layer="Layer_1" />
<g
   id="g2275">
	<g
   id="g2273">
		<path
   d="M235.403,144.422c-55.371,0-100.417,45.048-100.417,100.416s45.046,100.416,100.417,100.416    c55.37,0,100.416-45.048,100.416-100.416C335.82,189.47,290.773,144.422,235.403,144.422z M235.403,309.534    c-35.673,0-64.697-29.023-64.697-64.695s29.023-64.695,64.697-64.695s64.695,29.023,64.695,64.695    S271.077,309.534,235.403,309.534z"
   id="path2271" />
	</g>
</g>
<g
   id="g2281">
	<g
   id="g2279">
		<path
   d="M271.724,237.657c-2.187,1.693-4.927,2.712-7.909,2.712c-7.15,0-12.945-5.795-12.945-12.945    c0-5.165,3.033-9.61,7.407-11.688c-6.298-4.957-14.238-7.923-22.874-7.923c-20.448,0-37.025,16.577-37.025,37.025    c0,20.448,16.577,37.025,37.025,37.025c20.448,0,37.024-16.577,37.024-37.025C272.427,242.381,272.182,239.98,271.724,237.657z"
   id="path2277" />
	</g>
</g>
<g
   id="g2287">
	<g
   id="g2285">
		<path
   d="M175.542,98.864c-15.905,6.527-30.576,15.58-43.6,26.907l23.44,26.955c10.08-8.766,21.427-15.77,33.723-20.816    L175.542,98.864z"
   id="path2283" />
	</g>
</g>
<g
   id="g2293">
	<g
   id="g2291">
		<path
   d="M235.406,87.102c-0.005,0-0.008,0-0.013,0c-7.586,0-15.215,0.545-22.674,1.622l5.097,35.354    c5.777-0.831,11.69-1.254,17.577-1.254c0.004,0,0.007,0,0.011,0c7.423,0,14.855,0.67,22.087,1.991l6.419-35.14    C254.565,87.968,244.975,87.102,235.406,87.102z"
   id="path2289" />
	</g>
</g>
<g
   id="g2299">
	<g
   id="g2297">
		<path
   d="M286.131,355.844c-12.094,5.537-24.953,9.028-38.223,10.377l3.611,35.538c17.172-1.746,33.819-6.267,49.481-13.436    L286.131,355.844z"
   id="path2295" />
	</g>
</g>
<g
   id="g2305">
	<g
   id="g2303">
		<path
   d="M106.178,154.364c-9.917,14.141-17.39,29.69-22.211,46.212l34.291,10.007c3.724-12.761,9.501-24.775,17.167-35.709    L106.178,154.364z"
   id="path2301" />
	</g>
</g>
<g
   id="g2311">
	<g
   id="g2309">
		<path
   d="M130.179,306.647l-30.782,18.125c8.728,14.822,19.76,28.06,32.791,39.345l23.386-27.003    C145.478,328.373,136.936,318.122,130.179,306.647z"
   id="path2307" />
	</g>
</g>
<g
   id="g2317">
	<g
   id="g2315">
		<path
   d="M180.305,353.735l-16.157,31.861c0.972,0.493,1.96,0.944,2.941,1.416l-31.167,33.247H0v35.721h151.4l52.96-56.495    c2.885,0.576,5.783,1.101,8.706,1.516l5.019-35.366C204.893,363.762,192.182,359.759,180.305,353.735z"
   id="path2313" />
	</g>
</g>
<g
   id="g2323">
	<g
   id="g2321">
		<path
   d="M113.39,244.838c0-1.619,0.031-3.254,0.094-4.857l-35.694-1.397c-0.081,2.066-0.123,4.17-0.123,6.255    c0.001,15.162,2.153,30.162,6.394,44.582l34.271-10.079C115.054,268.196,113.391,256.587,113.39,244.838z"
   id="path2319" />
	</g>
</g>
<g
   id="g2329">
	<g
   id="g2327">
		<path
   d="M367.935,159.277l-29.992,19.4c7.247,11.204,12.564,23.425,15.804,36.321l34.645-8.705    C384.195,189.594,377.312,173.775,367.935,159.277z"
   id="path2325" />
	</g>
</g>
<g
   id="g2335">
	<g
   id="g2333">
		<path
   d="M357.418,244.531v0.307c0,13.404-2.155,26.569-6.405,39.129l33.837,11.449c5.5-16.255,8.288-33.272,8.288-50.577v-0.307    H357.418z"
   id="path2331" />
	</g>
</g>
<g
   id="g2341">
	<g
   id="g2339">
		<path
   d="M338.078,310.788c-7.216,11.207-16.161,21.112-26.588,29.441l22.293,27.91c13.462-10.752,25.012-23.542,34.33-38.014    L338.078,310.788z"
   id="path2337" />
	</g>
</g>
<g
   id="g2347">
	<g
   id="g2345">
		<path
   d="M361.389,56.022l-53.259,48.844c-2.447-1.273-4.918-2.506-7.436-3.653l-14.8,32.511    c12.107,5.512,23.189,12.94,32.935,22.078l24.433-26.06c-1.556-1.459-3.139-2.883-4.747-4.273l36.775-33.725H512V56.022H361.389z"
   id="path2343" />
	</g>
</g>
<g
   id="g2353">
	<g
   id="g2351">
		<rect
   x="417.268"
   y="2.987"
   width="94.732"
   height="35.721"
   id="rect2349" />
	</g>
</g>
<g
   id="g2359">
	<g
   id="g2357">
		<rect
   y="473.292"
   width="94.732"
   height="35.721"
   id="rect2355" />
	</g>
</g>
<g
   id="g2365">
	<g
   id="g2363">
		<rect
   x="417.268"
   y="473.292"
   width="94.732"
   height="35.721"
   id="rect2361" />
	</g>
</g>
<g
   id="g2371">
	<g
   id="g2369">
		<rect
   x="417.268"
   y="420.258"
   width="94.732"
   height="35.721"
   id="rect2367" />
	</g>
</g>
<g
   id="g2377">
	<g
   id="g2375">
		<rect
   x="417.268"
   y="367.224"
   width="94.732"
   height="35.721"
   id="rect2373" />
	</g>
</g>
<g
   id="g2379">
</g>
<g
   id="g2381">
</g>
<g
   id="g2383">
</g>
<g
   id="g2385">
</g>
<g
   id="g2387">
</g>
<g
   id="g2389">
</g>
<g
   id="g2391">
</g>
<g
   id="g2393">
</g>
<g
   id="g2395">
</g>
<g
   id="g2397">
</g>
<g
   id="g2399">
</g>
<g
   id="g2401">
</g>
<g
   id="g2403">
</g>
<g
   id="g2405">
</g>
<g
   id="g2407">
</g>
<path
   style="font-variation-settings:normal;opacity:1;vector-effect:none;fill:#ffffff;fill-opacity:1;stroke-width:0.0452807;stroke-linecap:butt;stroke-linejoin:miter;stroke-miterlimit:4;stroke-dasharray:none;stroke-dashoffset:0;stroke-opacity:1;stop-color:#000000;stop-opacity:1"
   d="m 76.218409,237.54134 c -1.134151,7.34808 0.365774,15.19258 0.743587,22.70669 1.303005,9.51195 1.88131,19.56711 5.69635,28.42436 4.355901,3.15679 9.752361,-0.99745 14.396256,-1.49454 7.143538,-2.11749 14.437108,-3.85497 21.413418,-6.47114 2.54272,-3.61781 -1.09074,-8.40014 -1.13418,-12.44701 -2.06126,-9.49714 -2.18769,-19.28121 -2.62867,-28.96736 -3.17454,-2.66766 -8.64965,-0.59708 -12.77113,-1.39716 -8.48083,0.15099 -17.381867,-1.46164 -25.715631,-0.35384 z"
   id="path2977" /><path
   style="font-variation-settings:normal;opacity:1;vector-effect:none;fill:#ffffff;fill-opacity:1;stroke-width:0.0452807;stroke-linecap:butt;stroke-linejoin:miter;stroke-miterlimit:4;stroke-dasharray:none;stroke-dashoffset:0;stroke-opacity:1;stop-color:#000000;stop-opacity:1"
   d="m 106.75975,154.96568 c -5.99748,1.51727 -7.761179,8.83135 -10.979719,13.35725 -5.186275,10.14205 -10.424292,20.5864 -12.76755,31.80032 1.823755,4.49447 8.889595,3.52214 12.900702,5.65552 7.150917,1.83733 14.200357,4.69422 21.520517,5.55508 4.54912,-3.10755 4.70961,-9.73282 7.4513,-14.22125 2.99626,-7.52295 7.68171,-14.23085 11.19144,-21.43709 0.18939,-4.24929 -5.73038,-5.27639 -8.15808,-7.97796 -6.88204,-4.27647 -13.08978,-10.4181 -20.94956,-12.74123 z"
   id="path2979" /><path
   style="font-variation-settings:normal;opacity:1;vector-effect:none;fill:#ffffff;fill-opacity:1;stroke-width:0.0452807;stroke-linecap:butt;stroke-linejoin:miter;stroke-miterlimit:4;stroke-dasharray:none;stroke-dashoffset:0;stroke-opacity:1;stop-color:#000000;stop-opacity:1"
   d="m 173.90016,98.291732 c -13.7333,5.282148 -26.60722,13.130638 -37.97882,22.480158 -2.98579,2.0863 -4.66284,6.35532 -1.62337,9.23591 6.17166,7.90373 12.38623,16.1735 20.31201,22.36661 5.11627,0.16643 8.83923,-4.80234 13.13573,-7.0858 6.60009,-4.64405 13.85637,-8.26655 20.98752,-11.90483 3.15857,-3.4987 -1.54022,-7.99189 -2.16207,-11.6905 -3.58772,-7.56744 -5.42288,-16.33703 -10.71001,-22.925729 -0.56378,-0.399013 -1.27472,-0.585257 -1.96099,-0.475819 z"
   id="path2981" /><path
   style="font-variation-settings:normal;opacity:1;vector-effect:none;fill:#ffffff;fill-opacity:1;stroke-width:0.0452807;stroke-linecap:butt;stroke-linejoin:miter;stroke-miterlimit:4;stroke-dasharray:none;stroke-dashoffset:0;stroke-opacity:1;stop-color:#000000;stop-opacity:1"
   d="m 230.39158,85.882995 c -6.2872,0.261727 -13.03496,-0.285511 -18.87676,2.113885 0.45368,11.720567 3.27352,23.5417 4.63963,35.30109 3.14976,3.65935 9.52198,0.68654 13.98916,1.52198 8.46754,-0.33477 16.95814,0.16171 25.31973,1.15353 5.3558,-1.41284 4.47272,-8.70947 5.79127,-12.88794 1.17199,-7.78937 3.17605,-15.54343 3.67675,-23.391312 -2.82033,-3.670901 -8.64514,-2.188037 -12.71451,-3.121685 -7.2636,-0.491404 -14.5455,-0.703189 -21.82527,-0.689548 z"
   id="path2983" /><path
   style="font-variation-settings:normal;opacity:1;vector-effect:none;fill:#ffffff;fill-opacity:1;stroke-width:0.0452807;stroke-linecap:butt;stroke-linejoin:miter;stroke-miterlimit:4;stroke-dasharray:none;stroke-dashoffset:0;stroke-opacity:1;stop-color:#000000;stop-opacity:1"
   d="m 436.71763,54.316693 c -25.1908,0.195374 -50.52734,-0.384173 -75.6272,0.294806 -17.93866,15.715508 -35.32587,32.316219 -53.05299,48.371341 -3.47006,-1.98317 -8.64551,-2.36187 -10.44306,2.0312 -4.40915,8.84193 -9.02844,17.83516 -11.64274,27.37442 0.61037,5.5442 7.73279,5.96038 11.24337,9.15444 7.15605,4.00142 13.18646,9.72415 20.13416,13.93916 4.73536,0.94162 7.34416,-4.90029 10.60783,-7.33281 5.45061,-5.96174 11.52154,-11.57748 16.44115,-17.88576 -3.05398,-4.0649 -3.66021,-6.24046 1.68334,-9.59573 9.78452,-9.15624 19.68574,-18.15892 29.56253,-27.210662 45.32553,0 90.65107,0 135.9766,0 4.13625,-2.710026 1.04174,-9.550931 2.00001,-13.981279 -0.40239,-8.168893 0.81822,-16.67505 -0.63495,-24.625585 -11.96683,-1.248311 -24.3732,-0.183116 -36.51014,-0.536025 -13.24597,8.28e-4 -26.49194,0.0017 -39.73791,0.0025 z"
   id="path2985" /><path
   style="font-variation-settings:normal;opacity:1;vector-effect:none;fill:#ffffff;fill-opacity:1;stroke-width:0.0452807;stroke-linecap:butt;stroke-linejoin:miter;stroke-miterlimit:4;stroke-dasharray:none;stroke-dashoffset:0;stroke-opacity:1;stop-color:#000000;stop-opacity:1"
   d="m 415.88612,2.2293292 c -1.24724,11.7008828 -0.18286,23.8410288 -0.53823,35.7113888 2.71003,4.136242 9.55094,1.041738 13.98128,1.999999 27.42382,0 54.84764,0 82.27145,0 4.13625,-2.710026 1.04174,-9.550931 2.00001,-13.981279 -0.4099,-7.901081 0.83774,-16.146605 -0.63495,-23.8268327 -11.96683,-1.24886103 -24.3732,-0.1846098 -36.51014,-0.5382215 -19.92477,0.211868 -40.02569,-0.4239244 -59.84027,0.3182259 z"
   id="path2987" /><path
   style="font-variation-settings:normal;opacity:1;vector-effect:none;fill:#ffffff;fill-opacity:1;stroke-width:0.0452807;stroke-linecap:butt;stroke-linejoin:miter;stroke-miterlimit:4;stroke-dasharray:none;stroke-dashoffset:0;stroke-opacity:1;stop-color:#000000;stop-opacity:1"
   d="m 233.14196,142.99688 c -42.88907,0.50638 -83.27379,31.20564 -95.27447,72.38056 -5.39287,17.12171 -5.1149,35.72957 -1.65376,53.20446 10.4739,44.50888 53.73333,79.395 99.78783,78.04836 36.73444,0.22128 72.09638,-21.62709 89.22138,-53.96054 9.81674,-17.5669 13.30041,-38.07046 11.45857,-58.00447 -3.81795,-47.62993 -46.1609,-88.77952 -93.86404,-91.41876 -3.21944,-0.22629 -6.44865,-0.30984 -9.67551,-0.24961 z m 3.55227,39.12168 c 29.99312,-0.60472 57.78378,24.35651 61.156,54.31826 1.6636,15.09804 -1.24091,30.97654 -10.23713,43.59282 -11.58279,17.46466 -32.29567,28.53949 -53.48671,27.48385 -28.79136,0.64018 -56.1298,-22.70883 -60.63584,-51.18613 -1.31398,-13.63618 -1.23587,-28.34537 5.91663,-40.48025 10.89191,-20.70847 33.58983,-35.09006 57.28705,-33.72855 z"
   id="path2989" /><path
   style="font-variation-settings:normal;opacity:1;vector-effect:none;fill:#ffffff;fill-opacity:1;stroke-width:0.0452807;stroke-linecap:butt;stroke-linejoin:miter;stroke-miterlimit:4;stroke-dasharray:none;stroke-dashoffset:0;stroke-opacity:1;stop-color:#000000;stop-opacity:1"
   d="m 366.85647,159.76443 c -9.54693,3.70762 -17.97176,10.07313 -26.35881,15.90172 -4.8372,2.50666 -0.92488,7.82584 0.48917,11.21463 4.90834,9.01896 8.10497,18.81629 11.68712,28.36259 3.85751,2.60257 8.62741,-1.36209 12.78077,-1.51989 7.83201,-2.33099 16.31577,-3.30228 23.79645,-6.48947 1.12225,-4.72979 -2.24585,-9.52783 -3.29485,-14.13261 -4.24291,-11.15967 -8.55955,-22.73824 -15.92512,-32.22933 -0.86672,-0.76367 -2.0189,-1.17712 -3.17473,-1.10764 z"
   id="path2991" /><path
   style="font-variation-settings:normal;opacity:1;vector-effect:none;fill:#ffffff;fill-opacity:1;stroke-width:0.0452807;stroke-linecap:butt;stroke-linejoin:miter;stroke-miterlimit:4;stroke-dasharray:none;stroke-dashoffset:0;stroke-opacity:1;stop-color:#000000;stop-opacity:1"
   d="m 356.21685,243.45242 c -1.31242,9.63399 -1.18839,19.6 -3.67482,29.1219 -0.18449,3.94418 -3.31253,8.81598 -0.69804,12.32272 9.80625,5.1761 20.77091,8.02241 31.38066,11.14196 4.66774,-0.32249 4.70006,-6.68854 6.10608,-10.07956 3.3255,-13.63951 5.47046,-27.80558 5.21943,-41.78305 -3.59831,-2.93861 -9.84255,-0.61911 -14.49868,-1.35892 -7.88146,0.41774 -16.18713,-0.85741 -23.83463,0.63495 z"
   id="path2993" /><path
   style="font-variation-settings:normal;opacity:1;vector-effect:none;fill:#ffffff;fill-opacity:1;stroke-width:0.0452807;stroke-linecap:butt;stroke-linejoin:miter;stroke-miterlimit:4;stroke-dasharray:none;stroke-dashoffset:0;stroke-opacity:1;stop-color:#000000;stop-opacity:1"
   d="m 338.58658,310.73947 c -6.02991,3.34062 -9.02577,10.4104 -14.08066,14.9855 -3.74722,5.12806 -10.71322,8.70114 -12.19235,15.26723 2.98322,7.97371 9.60354,14.08571 14.55538,20.9064 2.44137,3.64913 7.49018,7.47578 11.66927,3.99376 11.3999,-9.56712 21.36074,-20.98115 29.64743,-33.33074 2.97369,-4.49689 -4.02766,-6.42018 -6.64515,-8.60895 -7.30203,-4.45741 -14.42685,-9.30292 -22.06,-13.16328 -0.28328,0.44372 -0.59931,-0.1388 -0.89392,-0.0499 z"
   id="path2995" /><path
   style="font-variation-settings:normal;opacity:1;vector-effect:none;fill:#ffffff;fill-opacity:1;stroke-width:0.0452807;stroke-linecap:butt;stroke-linejoin:miter;stroke-miterlimit:4;stroke-dasharray:none;stroke-dashoffset:0;stroke-opacity:1;stop-color:#000000;stop-opacity:1"
   d="m 233.94696,206.27925 c -22.71728,0.4204 -41.62646,24.18888 -36.18097,46.42278 4.04815,18.9099 23.49998,33.81581 43.00312,30.20749 19.27636,-2.63686 34.66069,-21.24483 33.20593,-40.73479 1.21462,-5.85182 -5.32139,-3.93274 -8.69267,-3.58815 -9.12658,1.60236 -16.72333,-10.05441 -10.75039,-17.56474 2.24401,-2.213 5.50557,-6.65291 1.27613,-8.70047 -6.6027,-3.73192 -14.19789,-6.31747 -21.86115,-6.04212 z"
   id="path2997" /><path
   style="font-variation-settings:normal;opacity:1;vector-effect:none;fill:#ffffff;fill-opacity:1;stroke-width:0.0452807;stroke-linecap:butt;stroke-linejoin:miter;stroke-miterlimit:4;stroke-dasharray:none;stroke-dashoffset:0;stroke-opacity:1;stop-color:#000000;stop-opacity:1"
   d="m 128.9922,306.76131 c -9.52866,3.79971 -18.35025,9.46374 -26.85023,15.19189 -4.865471,3.36754 -0.46419,9.20966 1.88327,12.73307 7.241,10.04278 14.99834,20.10579 24.68459,27.87691 5.81,2.91089 10.1418,-4.06529 13.56963,-7.61635 4.66732,-5.98667 10.71036,-11.226 14.40853,-17.75182 -7.2092,-8.63284 -15.73963,-16.46824 -21.83464,-26.12013 -1.49338,-1.84471 -3.17014,-4.4313 -5.86115,-4.31357 z"
   id="path2999" /><path
   style="font-variation-settings:normal;opacity:1;vector-effect:none;fill:#ffffff;fill-opacity:1;stroke-width:0.0452807;stroke-linecap:butt;stroke-linejoin:miter;stroke-miterlimit:4;stroke-dasharray:none;stroke-dashoffset:0;stroke-opacity:1;stop-color:#000000;stop-opacity:1"
   d="m 181.83464,354.02028 c -6.13091,1.2703 -7.20625,9.14844 -10.23294,13.5857 -2.84944,6.14318 -6.73689,12.24257 -7.22884,19.07733 -8.69378,11.30299 -19.19794,21.12213 -28.65835,31.78627 -45.105566,0.0239 -90.21113,0.0483 -135.31669407,0.0733 -4.13385313,2.71238 -1.0403768,9.55077 -1.99843993,13.98128 0.4023837,8.16889 -0.8182271,16.67505 0.63494537,24.62559 11.96682463,1.24885 24.37319663,0.18461 36.51014063,0.53822 38.49766,0 76.995318,0 115.492978,0 7.77278,-6.16404 13.96515,-14.57348 21.12134,-21.61356 11.26242,-11.56279 21.79983,-24.24405 33.82094,-34.77958 2.83901,0.62066 8.77124,2.77507 8.95163,-2.00468 1.20936,-11.15593 3.74064,-22.40896 4.21685,-33.67239 -2.75744,-3.51664 -8.29344,-2.02651 -12.12636,-3.76443 -8.46929,-1.71657 -16.26279,-5.80175 -24.56942,-7.85023 l -0.20593,-0.002 z"
   id="path3001" /><path
   style="font-variation-settings:normal;opacity:1;vector-effect:none;fill:#ffffff;fill-opacity:1;stroke-width:0.0452807;stroke-linecap:butt;stroke-linejoin:miter;stroke-miterlimit:4;stroke-dasharray:none;stroke-dashoffset:0;stroke-opacity:1;stop-color:#000000;stop-opacity:1"
   d="m 284.79875,355.56162 c -9.14213,2.27194 -17.90418,6.1819 -27.30508,7.63007 -3.60355,1.45722 -9.54643,-0.60231 -11.15202,3.43858 1.38445,11.85964 2.20679,23.84862 3.9454,35.6287 3.42265,2.59851 8.29925,-0.46391 12.18742,-0.53357 13.22519,-2.70378 26.6927,-5.87242 38.66126,-12.2449 2.05567,-3.57992 -2.15186,-7.42924 -2.98046,-10.99919 -3.879,-7.48629 -6.23946,-16.17731 -11.81674,-22.58895 -0.46139,-0.27453 -1.01068,-0.35852 -1.53978,-0.33074 z"
   id="path3003" /><path
   style="font-variation-settings:normal;opacity:1;vector-effect:none;fill:#ffffff;fill-opacity:1;stroke-width:0.0452807;stroke-linecap:butt;stroke-linejoin:miter;stroke-miterlimit:4;stroke-dasharray:none;stroke-dashoffset:0;stroke-opacity:1;stop-color:#000000;stop-opacity:1"
   d="m 415.88612,366.46022 c -1.24724,11.70088 -0.18286,23.84103 -0.53823,35.71139 2.71003,4.13624 9.55094,1.04173 13.98128,2 27.42382,0 54.84764,0 82.27145,0 4.13625,-2.71003 1.04174,-9.55093 2.00001,-13.98128 -0.4099,-7.90108 0.83774,-16.14661 -0.63495,-23.82684 -11.96683,-1.24886 -24.3732,-0.18461 -36.51014,-0.53822 -19.92477,0.21187 -40.02569,-0.42392 -59.84027,0.31823 z"
   id="path3005" /><path
   style="font-variation-settings:normal;opacity:1;vector-effect:none;fill:#ffffff;fill-opacity:1;stroke-width:0.0452807;stroke-linecap:butt;stroke-linejoin:miter;stroke-miterlimit:4;stroke-dasharray:none;stroke-dashoffset:0;stroke-opacity:1;stop-color:#000000;stop-opacity:1"
   d="m 415.88612,419.17785 c -1.24887,11.96682 -0.18461,24.37319 -0.53823,36.51014 2.71003,4.13624 9.55094,1.04174 13.98128,2 27.42382,0 54.84764,0 82.27145,0 4.13625,-2.71003 1.04174,-9.55093 2.00001,-13.98128 -0.40239,-8.16889 0.81822,-16.67505 -0.63495,-24.62559 -11.96683,-1.24886 -24.3732,-0.18461 -36.51014,-0.53822 -19.92477,0.21187 -40.02569,-0.42392 -59.84027,0.31823 z"
   id="path3007" /><path
   style="font-variation-settings:normal;opacity:1;vector-effect:none;fill:#ffffff;fill-opacity:1;stroke-width:0.0452807;stroke-linecap:butt;stroke-linejoin:miter;stroke-miterlimit:4;stroke-dasharray:none;stroke-dashoffset:0;stroke-opacity:1;stop-color:#000000;stop-opacity:1"
   d="m 415.88612,472.69423 c -1.24724,11.70088 -0.18286,23.84103 -0.53823,35.71139 2.71003,4.13624 9.55094,1.04173 13.98128,2 27.42382,0 54.84764,0 82.27145,0 4.13625,-2.71003 1.04174,-9.55094 2.00001,-13.98128 -0.4099,-7.90108 0.83774,-16.14661 -0.63495,-23.82684 -11.96683,-1.24886 -24.3732,-0.18461 -36.51014,-0.53822 -19.92477,0.21187 -40.02569,-0.42392 -59.84027,0.31823 z"
   id="path3009" /><path
   style="font-variation-settings:normal;opacity:1;vector-effect:none;fill:#ffffff;fill-opacity:1;stroke-width:0.0452807;stroke-linecap:butt;stroke-linejoin:miter;stroke-miterlimit:4;stroke-dasharray:none;stroke-dashoffset:0;stroke-opacity:1;stop-color:#000000;stop-opacity:1"
   d="m -1.0624025,472.69423 c -1.2472325,11.70088 -0.1828554,23.84103 -0.5382215,35.71139 2.7100263,4.13624 9.5509312,1.04173 13.981279,2 27.423817,0 54.847634,0 82.271451,0 4.136241,-2.71003 1.04174,-9.55094 2.000003,-13.98128 -0.409895,-7.90108 0.837747,-16.14661 -0.634952,-23.82684 -11.966822,-1.24886 -24.373193,-0.18461 -36.510137,-0.53822 -19.924771,0.21187 -40.025691,-0.42392 -59.84026738,0.31823 z"
   id="path3011" /></svg>
